<svg width="159" height="108" viewBox="0 0 159 108" fill="none" xmlns="http://www.w3.org/2000/svg">
    <path
        d="M92.6504 30.5H80.9148C79.849 30.5 78.9838 29.6618 78.8516 28.6042C78.1489 22.9861 75.4601 20.1228 67.9062 16.6783C67.6494 16.5611 67.3662 16.5 67.0839 16.5H27.7922C27.6064 16.5 27.4222 16.5254 27.2463 16.5852C25.6103 17.141 16.9647 20.5433 16.5121 30.5C16.0678 40.2737 25.0973 45.7054 27.1159 46.7949C27.3787 46.9368 27.6671 47 27.9658 47H67.5121C82.0121 47 95.5496 61.8257 95.0121 78C94.4938 93.5989 82.0121 107 67.5121 107H27.7187C27.5814 107 27.4411 106.985 27.3067 106.957C10.8872 103.491 4.63294 97.688 1.41386 80.322C1.18934 79.1108 2.12927 78 3.3611 78H14.731C15.7463 78 16.5906 78.7646 16.765 79.7648C17.7857 85.6205 20.3455 88.4674 27.0969 91.7971C27.3676 91.9306 27.6689 92 27.9707 92H67.3592C67.461 92 67.5626 91.9927 67.6629 91.9754C74.0969 90.8646 79.5121 82.2076 79.5121 78C79.5121 72.9836 76.581 64.6942 67.8216 61.6061C67.6189 61.5347 67.4025 61.5 67.1876 61.5H27.6864C27.5704 61.5 27.4528 61.4897 27.3387 61.4692C9.65071 58.2967 0.621941 46.3701 1.01213 30.5C1.39077 15.0995 8.50684 7.02289 27.2159 1.0934C27.4095 1.03206 27.6154 1 27.8185 1H67.2882C67.437 1 67.5891 1.01738 67.7342 1.05063C85.2881 5.07251 91.3792 11.318 94.5958 28.1677C94.8276 29.382 93.8865 30.5 92.6504 30.5Z"
        fill="#00BBC9" stroke="#00BBC9" />
    <path d="M106 107H99V27H107L151 94V27H158V107H150L106 39V107Z" fill="#00BBC9" stroke="#00BBC9" />
</svg>
    