<svg width="407" height="440" viewBox="0 0 407 440" fill="none" xmlns="http://www.w3.org/2000/svg">
    <path d="M203.705 439.93C315.982 439.93 407 392.712 407 334.465C407 276.218 315.982 229 203.705 229C91.4282 229 0.409973 276.218 0.409973 334.465C0.409973 392.712 91.4282 439.93 203.705 439.93Z" fill="#F0F0F0"/>
    <path d="M187.25 406.98C232.118 406.98 268.49 385.982 268.49 360.08C268.49 334.178 232.118 313.18 187.25 313.18C142.382 313.18 106.01 334.178 106.01 360.08C106.01 385.982 142.382 406.98 187.25 406.98Z" fill="#E0E0E0"/>
    <path d="M356.745 321.931L348.563 316.431C348.563 316.431 346.563 296.031 347.893 280.231C349.765 258.031 362.076 231.311 376.757 237.591C391.438 243.871 370.026 266.471 365.261 285.301C360.496 304.131 356.745 321.931 356.745 321.931Z" fill="#00BBC9"/>
    <path opacity="0.15" d="M356.745 321.931L348.563 316.431C348.563 316.431 346.563 296.031 347.893 280.231C349.765 258.031 362.076 231.311 376.757 237.591C391.438 243.871 370.026 266.471 365.261 285.301C360.496 304.131 356.745 321.931 356.745 321.931Z" fill="black"/>
    <path d="M352.443 319.621C352.574 319.613 352.697 319.546 352.785 319.434C352.873 319.321 352.92 319.173 352.916 319.021C351.482 269.691 372.567 244.871 372.773 244.631C372.867 244.522 372.919 244.375 372.919 244.221C372.919 244.067 372.867 243.92 372.773 243.811C372.728 243.757 372.674 243.715 372.614 243.686C372.554 243.657 372.49 243.642 372.426 243.642C372.361 243.642 372.297 243.657 372.237 243.686C372.178 243.715 372.124 243.757 372.078 243.811C371.855 244.051 350.469 269.231 351.92 319.061C351.922 319.138 351.937 319.214 351.965 319.284C351.993 319.354 352.032 319.417 352.081 319.469C352.129 319.521 352.187 319.561 352.249 319.587C352.311 319.613 352.377 319.625 352.443 319.621Z" fill="white"/>
    <path d="M361.887 325.361L356.066 321.451C356.066 321.451 355.071 307.451 360.969 290.451C366.12 275.651 378.826 263.361 385.231 265.941C391.635 268.521 391.472 273.811 388.347 279.361C385.222 284.911 366.24 298.121 361.887 325.361Z" fill="#00BBC9"/>
    <path d="M358.814 323.881C358.945 323.878 359.071 323.816 359.163 323.708C359.256 323.6 359.309 323.454 359.312 323.301C359.191 292.101 384.338 271.021 384.595 270.811C384.649 270.768 384.695 270.713 384.729 270.649C384.764 270.585 384.788 270.513 384.798 270.439C384.809 270.364 384.806 270.287 384.79 270.214C384.774 270.14 384.746 270.071 384.707 270.011C384.631 269.887 384.516 269.804 384.388 269.777C384.26 269.751 384.128 269.785 384.02 269.871C383.763 270.081 358.204 291.521 358.316 323.301C358.316 323.455 358.368 323.602 358.462 323.711C358.555 323.82 358.682 323.881 358.814 323.881Z" fill="white"/>
    <path d="M54.0111 309.681L61.5661 303.741C61.5661 303.741 64.8886 280.741 61.7979 260.451C57.4538 231.991 40.5665 222.531 34.5569 225.531C28.5472 228.531 27.2594 237.001 38.4803 253.241C45.1339 262.791 53.7793 283.181 54.0111 309.681Z" fill="#00BBC9"/>
    <g opacity="0.15">
    <path d="M54.0111 309.681L61.5661 303.741C61.5661 303.741 64.8886 280.741 61.7979 260.451C57.4538 231.991 40.5665 222.531 34.5569 225.531C28.5472 228.531 27.2594 237.001 38.4803 253.241C45.1339 262.791 53.7793 283.181 54.0111 309.681Z" fill="black"/>
    </g>
    <path d="M56.6038 298.281H56.5266C56.4494 298.275 56.3741 298.251 56.3056 298.209C56.2372 298.167 56.1771 298.109 56.1293 298.038C56.0815 297.967 56.047 297.885 56.0282 297.798C56.0094 297.711 56.0066 297.62 56.02 297.531C58.7501 270.741 49.0402 241.661 38.4717 230.091C38.37 229.971 38.313 229.809 38.313 229.641C38.313 229.472 38.37 229.311 38.4717 229.191C38.5221 229.131 38.5822 229.083 38.6485 229.051C38.7149 229.018 38.7861 229.002 38.8581 229.002C38.93 229.002 39.0013 229.018 39.0676 229.051C39.1339 229.083 39.1941 229.131 39.2444 229.191C50.0103 240.971 59.9006 270.531 57.1361 297.711C57.1199 297.864 57.0575 298.005 56.9599 298.11C56.8624 298.214 56.7362 298.275 56.6038 298.281Z" fill="white"/>
    <path d="M34.2306 325.221C33.0287 326.061 29.5259 323.031 28.5558 322.301C26.8931 321.036 25.5388 319.293 24.6237 317.241C23.5972 314.913 23.2162 312.272 23.5334 309.681C23.7092 308.329 23.9645 306.992 24.2975 305.681C24.598 304.371 24.8984 303.061 25.156 301.741C25.5367 300.457 25.683 299.094 25.5853 297.741C25.2504 295.071 23.1814 293.241 21.2926 291.671C19.215 289.921 17 287.611 17 284.391C17.1059 281.861 17.9372 279.445 19.3609 277.531C20.6487 275.531 22.1941 273.791 23.3531 271.701C24.2594 270.253 24.722 268.492 24.6666 266.701C24.5174 265.597 24.1787 264.539 23.6708 263.591C22.6577 261.511 21.3441 259.591 20.6316 257.381C19.919 255.171 19.9705 252.331 21.4901 250.681C22.7006 249.331 24.5464 249.111 26.2206 249.201C27.7981 249.384 29.322 249.968 30.6849 250.911C35.1235 253.661 37.7334 259.661 42.4296 261.751C44.241 262.551 46.2157 262.691 48.0958 263.231C49.976 263.771 51.9163 264.841 52.8177 266.831C54.5949 270.781 51.4956 275.761 52.7662 279.951C53.8995 283.671 57.0588 285.031 58.8446 288.361C59.5693 289.84 59.8701 291.549 59.7031 293.241C59.6024 296.097 59.0524 298.906 58.0805 301.531C56.9627 304.253 55.7011 306.891 54.303 309.431C54.303 309.431 34.4109 325.091 34.2306 325.221Z" fill="#00BBC9"/>
    <path d="M45.8379 316.931C45.7658 316.93 45.6945 316.912 45.6283 316.878C45.5621 316.845 45.5021 316.797 45.4519 316.736C45.4017 316.676 45.3621 316.605 45.3356 316.527C45.309 316.448 45.2959 316.365 45.297 316.281C45.7778 290.961 35.0806 263.281 27.5084 255.281C27.4008 255.168 27.3359 255.01 27.3278 254.841C27.3198 254.673 27.3692 254.507 27.4655 254.381C27.5158 254.321 27.5759 254.273 27.6423 254.241C27.7086 254.208 27.7798 254.192 27.8518 254.192C27.9237 254.192 27.995 254.208 28.0613 254.241C28.1277 254.273 28.1878 254.321 28.2381 254.381C35.9649 262.481 46.8767 290.641 46.3874 316.311C46.3863 316.394 46.3712 316.475 46.3429 316.551C46.3147 316.627 46.2739 316.696 46.2229 316.753C46.1719 316.811 46.1116 316.856 46.0456 316.887C45.9795 316.917 45.9089 316.932 45.8379 316.931Z" fill="white"/>
    <path d="M41.8286 286.081C41.7779 286.096 41.7248 286.096 41.6741 286.081C34.6513 283.721 25.9459 283.481 25.86 283.471C25.7882 283.47 25.7174 283.452 25.6516 283.418C25.5859 283.385 25.5265 283.336 25.4769 283.276C25.4274 283.215 25.3887 283.144 25.3631 283.066C25.3375 282.988 25.3254 282.904 25.3277 282.821C25.3264 282.736 25.3401 282.653 25.368 282.575C25.3959 282.497 25.4374 282.426 25.4899 282.368C25.5423 282.31 25.6046 282.265 25.6728 282.236C25.7409 282.207 25.8134 282.195 25.8858 282.201C25.9716 282.201 34.8144 282.451 41.9746 284.851C42.1129 284.899 42.2293 285.01 42.2984 285.158C42.3675 285.305 42.3838 285.479 42.3437 285.641C42.3103 285.769 42.242 285.881 42.1491 285.961C42.0562 286.04 41.9438 286.082 41.8286 286.081Z" fill="white"/>
    <path d="M233.38 0.389998C235.106 0.774077 236.769 1.40027 238.32 2.25C239.805 3.04828 241.136 4.10479 242.25 5.37C243.316 6.58706 244.107 8.01958 244.57 9.57C245.042 11.2296 245.076 12.9831 244.67 14.66C244.402 15.9895 243.875 17.2534 243.12 18.38C242.431 19.3434 241.609 20.2051 240.68 20.94C239.767 21.6485 238.794 22.2743 237.77 22.81L234.89 24.34C234.022 24.7925 233.199 25.3248 232.43 25.93C231.734 26.4636 231.201 27.1804 230.89 28C230.738 28.3745 230.485 28.6997 230.16 28.94C230.006 29.0595 229.827 29.1423 229.637 29.1822C229.446 29.222 229.249 29.2179 229.06 29.17L224.82 28.23C224.616 28.1872 224.422 28.1041 224.251 27.9856C224.079 27.8672 223.932 27.7157 223.82 27.54C223.7 27.3767 223.621 27.1875 223.588 26.9877C223.555 26.7879 223.569 26.5831 223.63 26.39C223.971 25.0769 224.573 23.8458 225.4 22.77C226.154 21.8184 227.028 20.968 228 20.24C228.947 19.5469 229.95 18.9347 231 18.41C232 17.9 233 17.41 233.87 16.92C234.679 16.485 235.44 15.9654 236.14 15.37C236.754 14.856 237.18 14.1524 237.35 13.37C237.509 12.6906 237.501 11.9828 237.327 11.3071C237.153 10.6313 236.818 10.0079 236.35 9.49C235.181 8.2133 233.618 7.36487 231.91 7.08C228.75 6.38 226.083 7.44333 223.91 10.27C223.7 10.5785 223.436 10.8463 223.13 11.06C222.785 11.2311 222.386 11.2598 222.02 11.14L217.51 10.14C217.188 10.0778 216.904 9.89089 216.72 9.62C216.622 9.47526 216.555 9.31105 216.526 9.1385C216.497 8.96596 216.505 8.78912 216.55 8.62C216.933 7.23044 217.647 5.95418 218.63 4.9C219.739 3.67745 221.056 2.66166 222.52 1.9C224.121 1.0624 225.846 0.488365 227.63 0.199999C229.541 -0.110811 231.494 -0.0462765 233.38 0.389998ZM228.59 32.57C228.987 32.6631 229.331 32.9078 229.55 33.2516C229.768 33.5955 229.844 34.0113 229.76 34.41L228.68 39.31C228.643 39.5152 228.564 39.7103 228.447 39.8826C228.33 40.0549 228.177 40.2006 228 40.31C227.833 40.4254 227.643 40.5046 227.443 40.5425C227.243 40.5804 227.038 40.5761 226.84 40.53L222 39.42C221.794 39.3853 221.598 39.3066 221.426 39.1892C221.253 39.0719 221.108 38.9186 221 38.74C220.888 38.5711 220.812 38.3811 220.775 38.1816C220.739 37.9822 220.744 37.7775 220.79 37.58L221.88 32.68C221.973 32.2828 222.217 31.9375 222.561 31.7172C222.904 31.4969 223.32 31.419 223.72 31.5L228.59 32.57Z" fill="#00BBC9"/>
    <path d="M238.72 47.3C239.924 47.1068 241.149 47.0833 242.36 47.23C243.516 47.3675 244.64 47.7059 245.68 48.23C246.67 48.7438 247.542 49.4591 248.24 50.33C248.867 51.1823 249.309 52.1566 249.536 53.1901C249.763 54.2235 249.772 55.2932 249.56 56.33C249.369 57.1271 249.063 57.892 248.65 58.6C248.252 59.2887 247.79 59.9382 247.27 60.54C246.76 61.14 246.27 61.71 245.82 62.26C245.38 62.7724 244.988 63.3248 244.65 63.91C244.333 64.4229 244.173 65.0173 244.19 65.62C244.181 65.9017 244.102 66.1767 243.96 66.42C243.888 66.5321 243.792 66.6276 243.68 66.7C243.568 66.7724 243.442 66.8201 243.31 66.84L240.31 67.32C240.17 67.3454 240.026 67.3426 239.887 67.3117C239.748 67.2808 239.616 67.2224 239.5 67.14C239.382 67.0657 239.283 66.9644 239.212 66.8445C239.14 66.7245 239.099 66.5893 239.09 66.45C238.964 65.5195 239.032 64.573 239.29 63.67C239.525 62.8706 239.861 62.1044 240.29 61.39C240.71 60.7044 241.192 60.0584 241.73 59.46C242.26 58.86 242.73 58.3 243.19 57.76C243.601 57.2778 243.956 56.7512 244.25 56.19C244.51 55.707 244.605 55.152 244.52 54.61C244.445 54.1329 244.255 53.6811 243.968 53.2928C243.681 52.9046 243.304 52.5914 242.87 52.38C241.795 51.8607 240.578 51.713 239.41 51.96C238.352 52.1146 237.369 52.5927 236.593 53.3285C235.818 54.0643 235.29 55.0219 235.08 56.07C235.021 56.3221 234.92 56.5623 234.78 56.78C234.602 56.9698 234.36 57.0873 234.1 57.11L230.94 57.62C230.718 57.6625 230.488 57.6158 230.3 57.49C230.204 57.4238 230.123 57.3379 230.062 57.2378C230.002 57.1378 229.964 57.026 229.95 56.91C229.856 55.9177 230.011 54.9176 230.4 54C230.795 52.9323 231.378 51.9435 232.12 51.08C232.933 50.1345 233.892 49.3243 234.96 48.68C236.112 47.9812 237.389 47.5125 238.72 47.3ZM243.88 69.15C244.018 69.1282 244.158 69.1337 244.294 69.1663C244.429 69.1989 244.557 69.2579 244.67 69.34C244.788 69.4175 244.888 69.519 244.964 69.6379C245.04 69.7569 245.089 69.8905 245.11 70.03L245.67 73.46C245.713 73.7382 245.645 74.0224 245.481 74.2507C245.316 74.4791 245.068 74.6334 244.79 74.68L241.44 75.23C241.162 75.273 240.878 75.2047 240.65 75.04C240.534 74.9615 240.436 74.8595 240.362 74.7407C240.288 74.6218 240.239 74.4887 240.22 74.35L239.66 70.92C239.635 70.7824 239.638 70.6409 239.671 70.5048C239.704 70.3687 239.765 70.2411 239.85 70.13C239.928 70.014 240.03 69.9158 240.149 69.8417C240.268 69.7676 240.401 69.7194 240.54 69.7L243.88 69.15Z" fill="#00BBC9"/>
    <g opacity="0.2">
    <path d="M238.72 47.3C239.924 47.1068 241.149 47.0833 242.36 47.23C243.516 47.3675 244.64 47.7059 245.68 48.23C246.67 48.7438 247.542 49.4591 248.24 50.33C248.867 51.1823 249.309 52.1566 249.536 53.1901C249.763 54.2235 249.772 55.2932 249.56 56.33C249.369 57.1271 249.063 57.892 248.65 58.6C248.252 59.2887 247.79 59.9382 247.27 60.54C246.76 61.14 246.27 61.71 245.82 62.26C245.38 62.7724 244.988 63.3248 244.65 63.91C244.333 64.4229 244.173 65.0173 244.19 65.62C244.181 65.9017 244.102 66.1767 243.96 66.42C243.888 66.5321 243.792 66.6276 243.68 66.7C243.568 66.7724 243.442 66.8201 243.31 66.84L240.31 67.32C240.17 67.3454 240.026 67.3426 239.887 67.3117C239.748 67.2808 239.616 67.2224 239.5 67.14C239.382 67.0657 239.283 66.9644 239.212 66.8445C239.14 66.7245 239.099 66.5893 239.09 66.45C238.964 65.5195 239.032 64.573 239.29 63.67C239.525 62.8706 239.861 62.1044 240.29 61.39C240.71 60.7044 241.192 60.0584 241.73 59.46C242.26 58.86 242.73 58.3 243.19 57.76C243.601 57.2778 243.956 56.7512 244.25 56.19C244.51 55.707 244.605 55.152 244.52 54.61C244.445 54.1329 244.255 53.6811 243.968 53.2928C243.681 52.9046 243.304 52.5914 242.87 52.38C241.795 51.8607 240.578 51.713 239.41 51.96C238.352 52.1146 237.369 52.5927 236.593 53.3285C235.818 54.0643 235.29 55.0219 235.08 56.07C235.021 56.3221 234.92 56.5623 234.78 56.78C234.602 56.9698 234.36 57.0873 234.1 57.11L230.94 57.62C230.718 57.6625 230.488 57.6158 230.3 57.49C230.204 57.4238 230.123 57.3379 230.062 57.2378C230.002 57.1378 229.964 57.026 229.95 56.91C229.856 55.9177 230.011 54.9176 230.4 54C230.795 52.9323 231.378 51.9435 232.12 51.08C232.933 50.1345 233.892 49.3243 234.96 48.68C236.112 47.9812 237.389 47.5125 238.72 47.3ZM243.88 69.15C244.018 69.1282 244.158 69.1337 244.294 69.1663C244.429 69.1989 244.557 69.2579 244.67 69.34C244.788 69.4175 244.888 69.519 244.964 69.6379C245.04 69.7569 245.089 69.8905 245.11 70.03L245.67 73.46C245.713 73.7382 245.645 74.0224 245.481 74.2507C245.316 74.4791 245.068 74.6334 244.79 74.68L241.44 75.23C241.162 75.273 240.878 75.2047 240.65 75.04C240.534 74.9615 240.436 74.8595 240.362 74.7407C240.288 74.6218 240.239 74.4887 240.22 74.35L239.66 70.92C239.635 70.7824 239.638 70.6409 239.671 70.5048C239.704 70.3687 239.765 70.2411 239.85 70.13C239.928 70.014 240.03 69.9158 240.149 69.8417C240.268 69.7676 240.401 69.7194 240.54 69.7L243.88 69.15Z" fill="black"/>
    </g>
    <path d="M267 52.69C267.136 52.7848 267.252 52.9064 267.34 53.0474C267.427 53.1884 267.485 53.3458 267.51 53.51C267.542 53.6727 267.54 53.8402 267.503 54.002C267.467 54.1637 267.398 54.3163 267.3 54.45L264.92 57.8C264.825 57.9363 264.704 58.0519 264.563 58.1396C264.422 58.2273 264.264 58.2852 264.1 58.31C263.937 58.3418 263.77 58.3396 263.608 58.3034C263.446 58.2673 263.294 58.198 263.16 58.1L259.88 55.77C259.743 55.6764 259.628 55.555 259.542 55.4136C259.456 55.2723 259.401 55.1142 259.38 54.95C259.348 54.7873 259.35 54.6198 259.387 54.458C259.423 54.2962 259.492 54.1437 259.59 54.01L262 50.66C262.195 50.3884 262.489 50.2047 262.818 50.1485C263.148 50.0924 263.486 50.1683 263.76 50.36L267 52.69ZM280.84 30C282.036 30.8381 283.101 31.8491 284 33C284.877 34.0705 285.554 35.2898 286 36.6C286.415 37.8555 286.555 39.1856 286.41 40.5C286.241 41.9016 285.71 43.2351 284.87 44.37C284.246 45.2876 283.443 46.0698 282.51 46.67C281.689 47.1849 280.796 47.5758 279.86 47.83C278.949 48.0682 278.019 48.2288 277.08 48.31L274.42 48.55C273.622 48.6137 272.832 48.751 272.06 48.96C271.348 49.1217 270.696 49.4824 270.18 50C269.947 50.2365 269.653 50.4028 269.33 50.48C269.177 50.524 269.015 50.5306 268.858 50.4993C268.702 50.468 268.555 50.3997 268.43 50.3L265.53 48.24C265.253 48.042 265.063 47.7447 265 47.41C264.963 47.2478 264.964 47.0791 265.004 46.9175C265.044 46.7559 265.121 46.6061 265.23 46.48C265.907 45.6009 266.754 44.8665 267.72 44.32C268.59 43.8451 269.517 43.4854 270.48 43.25C271.409 43.0246 272.356 42.8807 273.31 42.82C274.25 42.76 275.13 42.69 275.95 42.61C276.7 42.5437 277.441 42.3962 278.16 42.17C278.788 41.9607 279.33 41.5493 279.7 41C280.034 40.5361 280.252 39.9984 280.333 39.4326C280.415 38.8667 280.359 38.2895 280.17 37.75C279.697 36.4172 278.792 35.2804 277.6 34.52C275.44 32.98 273.083 32.93 270.53 34.37C270.273 34.5335 269.988 34.6488 269.69 34.71C269.535 34.7208 269.379 34.7007 269.231 34.651C269.083 34.6012 268.947 34.5227 268.83 34.42L265.75 32.23C265.638 32.1559 265.543 32.0602 265.469 31.9486C265.395 31.8369 265.345 31.7116 265.32 31.58C265.296 31.4439 265.301 31.3043 265.333 31.1701C265.366 31.0358 265.426 30.9098 265.51 30.8C266.237 29.8689 267.181 29.1306 268.26 28.65C269.486 28.0947 270.799 27.7563 272.14 27.65C273.616 27.5266 275.102 27.6448 276.54 28C278.092 28.374 279.554 29.0539 280.84 30Z" fill="#00BBC9"/>
    <g opacity="0.6">
    <path d="M267 52.69C267.136 52.7848 267.252 52.9064 267.34 53.0474C267.427 53.1884 267.485 53.3458 267.51 53.51C267.542 53.6727 267.54 53.8402 267.503 54.002C267.467 54.1637 267.398 54.3163 267.3 54.45L264.92 57.8C264.825 57.9363 264.704 58.0519 264.563 58.1396C264.422 58.2273 264.264 58.2852 264.1 58.31C263.937 58.3418 263.77 58.3396 263.608 58.3034C263.446 58.2673 263.294 58.198 263.16 58.1L259.88 55.77C259.743 55.6764 259.628 55.555 259.542 55.4136C259.456 55.2723 259.401 55.1142 259.38 54.95C259.348 54.7873 259.35 54.6198 259.387 54.458C259.423 54.2962 259.492 54.1437 259.59 54.01L262 50.66C262.195 50.3884 262.489 50.2047 262.818 50.1485C263.148 50.0924 263.486 50.1683 263.76 50.36L267 52.69ZM280.84 30C282.036 30.8381 283.101 31.8491 284 33C284.877 34.0705 285.554 35.2898 286 36.6C286.415 37.8555 286.555 39.1856 286.41 40.5C286.241 41.9016 285.71 43.2351 284.87 44.37C284.246 45.2876 283.443 46.0698 282.51 46.67C281.689 47.1849 280.796 47.5758 279.86 47.83C278.949 48.0682 278.019 48.2288 277.08 48.31L274.42 48.55C273.622 48.6137 272.832 48.751 272.06 48.96C271.348 49.1217 270.696 49.4824 270.18 50C269.947 50.2365 269.653 50.4028 269.33 50.48C269.177 50.524 269.015 50.5306 268.858 50.4993C268.702 50.468 268.555 50.3997 268.43 50.3L265.53 48.24C265.253 48.042 265.063 47.7447 265 47.41C264.963 47.2478 264.964 47.0791 265.004 46.9175C265.044 46.7559 265.121 46.6061 265.23 46.48C265.907 45.6009 266.754 44.8665 267.72 44.32C268.59 43.8451 269.517 43.4854 270.48 43.25C271.409 43.0246 272.356 42.8807 273.31 42.82C274.25 42.76 275.13 42.69 275.95 42.61C276.7 42.5437 277.441 42.3962 278.16 42.17C278.788 41.9607 279.33 41.5493 279.7 41C280.034 40.5361 280.252 39.9984 280.333 39.4326C280.415 38.8667 280.359 38.2895 280.17 37.75C279.697 36.4172 278.792 35.2804 277.6 34.52C275.44 32.98 273.083 32.93 270.53 34.37C270.273 34.5335 269.988 34.6488 269.69 34.71C269.535 34.7208 269.379 34.7007 269.231 34.651C269.083 34.6012 268.947 34.5227 268.83 34.42L265.75 32.23C265.638 32.1559 265.543 32.0602 265.469 31.9486C265.395 31.8369 265.345 31.7116 265.32 31.58C265.296 31.4439 265.301 31.3043 265.333 31.1701C265.366 31.0358 265.426 30.9098 265.51 30.8C266.237 29.8689 267.181 29.1306 268.26 28.65C269.486 28.0947 270.799 27.7563 272.14 27.65C273.616 27.5266 275.102 27.6448 276.54 28C278.092 28.374 279.554 29.0539 280.84 30Z" fill="white"/>
    </g>
    <path d="M192.53 141.21H157V55.13C157 47.6535 159.97 40.4833 165.257 35.1967C170.543 29.91 177.714 26.94 185.19 26.94H188.47C195.946 26.94 203.117 29.91 208.403 35.1967C213.69 40.4833 216.66 47.6535 216.66 55.13V117.13C216.647 123.521 214.099 129.646 209.575 134.16C205.051 138.675 198.921 141.21 192.53 141.21Z" fill="#263238"/>
    <path d="M153.54 348.44C152.912 352.007 152.577 355.619 152.54 359.24C152.41 365.8 151.21 368.13 151.05 373.51C150.86 379.66 151.93 381.96 154.42 385.42C156.91 388.88 163.42 392.01 166.24 386.17C169.06 380.33 168.65 376.5 167.76 370.47C166.85 364.23 166.76 360.78 166.2 356.03C165.74 351.84 165.2 348.65 165.2 348.65L153.54 348.44Z" fill="#263238"/>
    <path d="M172.16 304.87L150.56 304.48C150.88 318.9 153.17 334.91 153.56 348.48C153.64 351.03 153.5 368.27 154.46 373.48C155.91 381.36 165.25 380.29 165.75 375.58C166.25 370.87 165.15 350.74 165.18 348.66C165.09 339.98 169.18 325.33 171.29 309.75C171.38 309 172.06 305.62 172.16 304.87Z" fill="#FFA8A7"/>
    <path d="M199.91 337.22C199.91 337.22 199.06 336.76 198.91 337.67C198.7 338.75 198.38 340.98 197.91 342.76C197.29 345.23 196.77 349.3 197.14 351.32C197.51 353.34 202.21 355.92 205.26 356.86C209.019 358.02 212.447 360.06 215.26 362.81C218.26 365.65 224.79 368.33 229.26 368.3C234.51 368.3 238.17 366.55 239.9 363.74C241.63 360.93 238.32 360.59 232.32 356.74L227.67 353.74C218.16 347.53 214.67 344.21 212 338L199.91 337.22Z" fill="#263238"/>
    <path d="M212.08 333.37C211.92 328.91 215 291 215 291L194.49 300.35C198.88 326.57 199.82 332.76 199.89 337.05C199.8 337.409 199.763 337.78 199.78 338.15C199.78 343.24 205.55 345.99 210.03 349.39C213.838 352.373 217.897 355.023 222.16 357.31C225.42 358.94 232.04 359.09 232.86 357C227.4 352.83 219.46 346.59 215.12 341.83C213 339.59 212.24 337.84 212.08 333.37Z" fill="#FFA8A7"/>
    <path d="M159.41 164.16C151.53 181.45 151.53 194.83 152.84 216.9C154 237.15 155.93 255 155.93 255C155.63 258.59 150.64 265.6 149.99 281.48C149.39 296.32 150.99 315.19 150.99 315.19C150.99 315.19 162.2 321.4 170.49 315.13C170.49 315.13 178.49 276.94 180.83 258.36C182.83 242.15 186.43 221.44 186.43 221.44L194 258.25C192.366 263.473 191.182 268.826 190.46 274.25C189.4 285.18 195.52 306.64 195.52 306.64C195.52 306.64 207.1 310.09 214.17 303.82C214.17 303.82 216.81 268.93 217.8 255.77C219.12 238.14 216.34 190.42 214.17 165.15L159.41 164.16Z" fill="#455A64"/>
    <path d="M186.45 221.41L189.56 193.67C189.56 193.67 203.5 191.81 209.82 185.87C208.011 188.7 205.601 191.097 202.762 192.891C199.922 194.685 196.723 195.832 193.39 196.25L188.89 222.06L194 258.25L186.45 221.41Z" fill="#263238"/>
    <path d="M242.9 157.34C243.476 152.278 243.73 147.184 243.66 142.09C243.35 137.69 242.56 136.97 236.41 129.18C228.11 118.65 221.02 109.18 213.52 99.77C208.16 93.05 202.52 92.02 197.04 92.32C193.2 92.53 200.7 111 204.47 121.93L226 145.11C226.667 146.025 226.973 147.154 226.86 148.28L225.56 168L232.01 176.64C232.01 176.64 241.78 168.22 242.9 157.34Z" fill="#FFA8A7"/>
    <path d="M176.28 92.92C172.11 93.21 164.53 93.92 164.53 93.92C160.16 96.36 159.05 98.37 158.24 104.17C157.89 106.65 159.91 113.24 161.64 122.61L164.92 139.98L164.56 148.6C162.86 153.86 159.01 160.39 155.61 170.02C172.31 179.34 186.31 179.69 199.01 178.02C208.69 176.77 213.82 174.43 215.53 172.11C215.17 162.6 214.53 156.72 214.33 146.78C214.26 142.61 214.51 138.39 214.68 133.59C221.17 128.25 221.25 119.37 217.68 113.59C209.45 100.26 201.44 91.87 196.14 92.3L176.28 92.92Z" fill="#00BBC9"/>
    <path opacity="0.6" d="M176.28 92.92C172.11 93.21 164.53 93.92 164.53 93.92C160.16 96.36 159.05 98.37 158.24 104.17C157.89 106.65 159.91 113.24 161.64 122.61L164.92 139.98L164.56 148.6C162.86 153.86 159.01 160.39 155.61 170.02C172.31 179.34 186.31 179.69 199.01 178.02C208.69 176.77 213.82 174.43 215.53 172.11C215.17 162.6 214.53 156.72 214.33 146.78C214.26 142.61 214.51 138.39 214.68 133.59C221.17 128.25 221.25 119.37 217.68 113.59C209.45 100.26 201.44 91.87 196.14 92.3L176.28 92.92Z" fill="white"/>
    <path opacity="0.1" d="M201.75 133.72C201.75 133.72 194.13 139.64 185.42 136.55C182.974 135.779 180.769 134.39 179.017 132.518C177.265 130.645 176.026 128.352 175.42 125.86C175.42 125.86 174.5 135.81 185.47 139.2C196.1 142.47 201.75 133.72 201.75 133.72Z" fill="black"/>
    <path d="M212.09 65.61C211.76 80.05 207.09 83.61 204.73 84.61C202.37 85.61 197.85 85.01 193.45 84.28V93C193.45 93 198.53 98.32 198.15 102.29C197.77 106.26 190.15 106.71 184.47 102.82C181.336 100.667 178.501 98.1082 176.04 95.21C175.567 94.6509 175.309 93.9421 175.31 93.21V72.81C175.31 72.81 172.9 75.36 168.64 72.44C167.721 71.8534 166.934 71.082 166.329 70.1747C165.724 69.2675 165.314 68.2443 165.126 67.1702C164.938 66.0962 164.976 64.9947 165.236 63.9359C165.497 62.8771 165.975 61.8841 166.64 61.02C168.5 58.83 173.22 58.68 175.48 62.02C176.76 64.51 176.93 67.02 178.36 66.02C182.16 63.28 180.12 57.02 184.71 54.02C186.216 53.2339 187.781 52.5652 189.39 52.02C197.58 49.19 204.68 46.81 206.39 41.21C209.61 43.05 212.49 48.58 212.09 65.61Z" fill="#FFA8A7"/>
    <path d="M195.94 78.51C196.989 78.51 197.84 77.6594 197.84 76.61C197.84 75.5607 196.989 74.71 195.94 74.71C194.891 74.71 194.04 75.5607 194.04 76.61C194.04 77.6594 194.891 78.51 195.94 78.51Z" fill="#B16668"/>
    <path d="M194.68 63.42C194.68 63.8112 194.564 64.1937 194.349 64.5201C194.133 64.8465 193.826 65.1024 193.467 65.2563C193.107 65.4102 192.71 65.4552 192.325 65.3858C191.94 65.3164 191.584 65.1356 191.301 64.8658C191.017 64.596 190.819 64.2491 190.731 63.8679C190.643 63.4868 190.669 63.0882 190.805 62.7214C190.941 62.3547 191.182 62.0359 191.497 61.8046C191.813 61.5733 192.189 61.4396 192.58 61.42C192.851 61.4065 193.122 61.4482 193.376 61.5426C193.63 61.637 193.863 61.7822 194.059 61.9693C194.256 62.1564 194.412 62.3814 194.519 62.6309C194.626 62.8803 194.68 63.1488 194.68 63.42Z" fill="#263238"/>
    <path d="M209.83 63.62C209.85 63.8647 209.822 64.111 209.746 64.3445C209.671 64.5781 209.549 64.7943 209.389 64.9804C209.229 65.1666 209.033 65.319 208.814 65.4288C208.594 65.5386 208.355 65.6036 208.11 65.62C207.863 65.6428 207.614 65.6128 207.379 65.532C207.144 65.4511 206.93 65.3212 206.749 65.151C206.568 64.9808 206.426 64.774 206.331 64.5446C206.237 64.3151 206.192 64.0681 206.2 63.82C206.174 63.5735 206.199 63.3244 206.273 63.0879C206.347 62.8513 206.468 62.6323 206.63 62.4444C206.791 62.2564 206.989 62.1034 207.212 61.9948C207.435 61.8861 207.677 61.8241 207.925 61.8125C208.173 61.8009 208.42 61.84 208.652 61.9273C208.884 62.0147 209.095 62.1485 209.274 62.3206C209.452 62.4926 209.593 62.6993 209.689 62.9279C209.785 63.1565 209.833 63.4022 209.83 63.65V63.62Z" fill="#263238"/>
    <path d="M192.11 68.56C190.385 68.56 188.731 67.8755 187.51 66.6568C186.29 65.4381 185.603 63.7848 185.6 62.06C185.6 57.64 190.16 57.64 192.11 57.64C194.06 57.64 198.61 57.64 198.61 62.06C198.607 63.7831 197.922 65.4349 196.703 66.6533C195.485 67.8717 193.833 68.5574 192.11 68.56ZM192.11 58.66C188.11 58.66 186.63 59.66 186.63 62.06C186.63 63.5187 187.209 64.9177 188.241 65.9491C189.272 66.9806 190.671 67.56 192.13 67.56C193.589 67.56 194.988 66.9806 196.019 65.9491C197.051 64.9177 197.63 63.5187 197.63 62.06C197.59 59.61 196.05 58.66 192.11 58.66Z" fill="#455A64"/>
    <path d="M208.62 68.56C206.895 68.56 205.241 67.8755 204.02 66.6568C202.8 65.4381 202.113 63.7848 202.11 62.06C202.11 57.64 206.67 57.64 208.62 57.64C210.57 57.64 215.12 57.64 215.12 62.06C215.117 63.7831 214.432 65.4349 213.213 66.6533C211.995 67.8717 210.343 68.5574 208.62 68.56ZM208.62 58.66C204.68 58.66 203.14 59.66 203.14 62.06C203.14 63.5187 203.72 64.9177 204.751 65.9491C205.782 66.9806 207.181 67.56 208.64 67.56C210.099 67.56 211.498 66.9806 212.529 65.9491C213.561 64.9177 214.14 63.5187 214.14 62.06C214.1 59.61 212.56 58.66 208.62 58.66Z" fill="#455A64"/>
    <path d="M199.62 59.96L199.94 72.11L206.33 70.13L199.62 59.96Z" fill="#F28F8F"/>
    <path d="M193.44 84.3101C188.8 83.7001 179.25 80.9601 177.76 77.1801C178.36 79.0904 179.529 80.7721 181.11 82.0001C183.96 84.4501 193.44 87.2001 193.44 87.2001V84.3101Z" fill="#F28F8F"/>
    <path d="M193.67 54.06L189.43 56.65C189.096 56.068 188.999 55.3796 189.159 54.7278C189.319 54.076 189.724 53.511 190.29 53.15C190.57 52.9803 190.881 52.869 191.205 52.823C191.529 52.7769 191.859 52.797 192.175 52.8821C192.491 52.9672 192.786 53.1154 193.043 53.3179C193.3 53.5203 193.513 53.7728 193.67 54.06Z" fill="#263238"/>
    <path d="M210.92 56.94L206.2 55.29C206.291 54.9772 206.446 54.6864 206.654 54.4354C206.862 54.1845 207.119 53.9787 207.409 53.8307C207.699 53.6827 208.017 53.5957 208.342 53.5749C208.667 53.5542 208.993 53.6001 209.3 53.71C209.933 53.9375 210.454 54.3998 210.756 55.0011C211.058 55.6024 211.116 56.2966 210.92 56.94Z" fill="#263238"/>
    <path d="M198.1 62.58C198.032 62.58 197.965 62.5665 197.903 62.5402C197.84 62.514 197.783 62.4755 197.736 62.4271C197.688 62.3787 197.651 62.3213 197.626 62.2582C197.601 62.1952 197.589 62.1278 197.59 62.06C197.59 61.23 199.23 60.69 200.71 60.69C202.19 60.69 203.14 61.23 203.14 62.06C203.109 62.1687 203.043 62.2643 202.953 62.3323C202.863 62.4004 202.753 62.4372 202.64 62.4372C202.527 62.4372 202.417 62.4004 202.327 62.3323C202.237 62.2643 202.171 62.1687 202.14 62.06C202.14 61.96 201.63 61.71 200.74 61.71C200.023 61.6947 199.311 61.817 198.64 62.07C198.64 62.1396 198.626 62.2084 198.599 62.2724C198.571 62.3363 198.531 62.3939 198.48 62.4417C198.43 62.4894 198.37 62.5263 198.304 62.5501C198.239 62.5739 198.169 62.5841 198.1 62.58Z" fill="#455A64"/>
    <path d="M186.13 62.14H186.07L174.64 61.14C174.106 60.6107 173.47 60.1956 172.77 59.92L186.19 61.16C186.325 61.1776 186.447 61.247 186.531 61.3535C186.615 61.46 186.654 61.5951 186.64 61.73C186.617 61.8473 186.553 61.9527 186.459 62.0276C186.366 62.1026 186.25 62.1424 186.13 62.14Z" fill="#455A64"/>
    <path d="M139.2 74.06C142.94 69.06 145.49 65.29 148.9 61.06C150.84 58.63 152.08 56.89 153.9 54.4C155.18 52.68 155.9 51.23 157.36 50.7C158.937 50.0537 160.359 49.0787 161.53 47.84C162.25 47.0436 162.918 46.2019 163.53 45.32C165.673 42.4351 168.219 39.8723 171.09 37.71C174.09 35.45 177.44 33.71 180.53 31.56C182.37 30.27 184.34 28.13 182.1 26.13C181.413 25.5514 180.591 25.1558 179.71 24.98C174.26 23.8 169.52 25.67 164.19 27.03C161.875 27.6079 159.611 28.3738 157.42 29.32C156.343 29.7461 155.332 30.3254 154.42 31.04C153.145 32.3258 152.1 33.8208 151.33 35.46C149 39.62 144 43.34 140.5 46.63C136.41 50.48 132.75 54.01 128.08 58.25C123.88 62.08 119.77 65.6 115.92 69.78C112.73 73.23 113.92 75.93 114.34 76.87C116.94 82.21 119.85 84.13 123.34 87.44C129.34 93.17 150.09 109.66 156.96 115.11C158.436 116.269 159.595 117.783 160.33 119.51L161.65 122.56C169.49 124 174.72 112.23 168.23 98.06C167.155 95.7687 165.513 93.7895 163.46 92.31C155.26 86.34 139.2 74.06 139.2 74.06Z" fill="#FFA8A7"/>
    <path d="M139.2 74.06C136.705 77.1298 133.379 79.4173 129.62 80.65C129.62 80.65 134.62 81.93 141.47 75.78L139.2 74.06Z" fill="#F28F8F"/>
    <path d="M240.86 146.91L239.58 145.81C239.389 145.684 239.171 145.605 238.943 145.579C238.715 145.553 238.485 145.58 238.27 145.66L224.38 149.44C223.68 149.673 223.039 150.055 222.501 150.559C221.962 151.063 221.539 151.677 221.26 152.36L211.26 181.19C211.14 181.425 211.092 181.691 211.124 181.953C211.157 182.215 211.266 182.461 211.44 182.66L212.76 183.8C212.952 183.932 213.174 184.016 213.405 184.044C213.637 184.072 213.872 184.043 214.09 183.96L228 180.18C228.7 179.947 229.341 179.565 229.879 179.061C230.418 178.557 230.841 177.943 231.12 177.26C233.12 171.59 239.12 154.1 241.12 148.43C241.36 147.72 241.24 147.18 240.86 146.91Z" fill="#455A64"/>
    <path d="M212.57 182.3L222.57 153.47C222.848 152.788 223.271 152.174 223.81 151.672C224.348 151.169 224.99 150.79 225.69 150.56L239.57 146.78C240.86 146.43 241.57 147.17 241.11 148.43C239.11 154.1 233.11 171.59 231.11 177.26C230.831 177.943 230.408 178.557 229.869 179.061C229.331 179.565 228.69 179.947 227.99 180.18L214.11 184C212.83 184.3 212.14 183.56 212.57 182.3Z" fill="#00BBC9"/>
    <path d="M224.18 151.36C223.458 151.907 222.898 152.64 222.56 153.48L212.56 182.3C212.445 182.529 212.398 182.785 212.423 183.04C212.447 183.295 212.544 183.537 212.7 183.74L211.46 182.68C211.282 182.484 211.169 182.237 211.135 181.975C211.101 181.712 211.148 181.445 211.27 181.21L221.27 152.38C221.586 151.596 222.099 150.907 222.76 150.38L224.18 151.36Z" fill="#37474F"/>
    <path d="M237.05 160.05C236.05 162.98 232.58 164.94 226.84 166.3C221.1 167.66 217.93 173.75 218.84 175.6C219.75 177.45 229.03 179.18 232.74 178.65C236.45 178.12 240.17 172.76 241.3 171.1C242.43 169.44 243.73 157.86 242.54 156.27C241.35 154.68 238.84 154.93 238.84 154.93L237.05 160.05Z" fill="#F28F8F"/>
    </svg>
    