<svg width="430" height="257" viewBox="0 0 430 257" fill="none" xmlns="http://www.w3.org/2000/svg">
    <path d="M41.31 60.03L94.11 43.61L53.49 71.75L41.31 60.03Z" fill="#00BBC9"/>
    <path d="M94.11 43.61L37.24 52.99L25.06 41.26L94.11 43.61Z" fill="#00BBC9"/>
    <path d="M37.24 52.99V67.06L41.31 60.03L94.11 43.61L37.24 52.99Z" fill="#455A64"/>
    <path d="M37.24 67.06L45.37 63.94L41.31 60.03L37.24 67.06Z" fill="#00BBC9"/>
    <path d="M41.31 60.03L45.37 63.94L44.07 64.43L41.31 60.03Z" fill="#455A64"/>
    <path d="M28.49 64.94C28.3219 64.9432 28.1576 64.8897 28.0235 64.7882C27.8894 64.6868 27.7933 64.5432 27.7506 64.3805C27.7079 64.2179 27.7211 64.0456 27.7881 63.8913C27.8551 63.7371 27.972 63.6098 28.12 63.53C29.02 63.03 29.93 62.53 30.83 62.14C30.9193 62.0917 31.0174 62.0621 31.1184 62.0528C31.2195 62.0436 31.3214 62.0549 31.4179 62.0861C31.5144 62.1174 31.6036 62.1679 31.6801 62.2346C31.7565 62.3014 31.8186 62.3829 31.8626 62.4743C31.9067 62.5657 31.9317 62.6651 31.9361 62.7665C31.9406 62.8679 31.9245 62.9691 31.8887 63.0641C31.853 63.159 31.7983 63.2457 31.7281 63.3189C31.6578 63.3922 31.5734 63.4504 31.48 63.49C30.61 63.91 29.72 64.36 28.85 64.85C28.7387 64.9078 28.6154 64.9387 28.49 64.94Z" fill="#E0E0E0"/>
    <path d="M19.26 145.7C19.1068 145.702 18.9567 145.656 18.83 145.57C17.2036 144.423 15.6629 143.16 14.22 141.79C14.1286 141.731 14.0512 141.652 13.9932 141.56C13.9352 141.467 13.8981 141.364 13.8843 141.255C13.8706 141.147 13.8806 141.037 13.9136 140.933C13.9467 140.83 14.002 140.734 14.0757 140.654C14.1494 140.573 14.2397 140.51 14.3404 140.468C14.441 140.426 14.5496 140.407 14.6585 140.411C14.7675 140.416 14.8741 140.444 14.9711 140.494C15.0681 140.544 15.153 140.614 15.22 140.7C16.6118 142.021 18.0991 143.238 19.67 144.34C19.7995 144.433 19.8961 144.564 19.9459 144.715C19.9958 144.866 19.9962 145.029 19.9473 145.181C19.8983 145.332 19.8023 145.464 19.6734 145.558C19.5445 145.651 19.3892 145.701 19.23 145.7H19.26ZM11.42 138.42C11.3093 138.421 11.1997 138.398 11.0993 138.351C10.9989 138.304 10.9103 138.235 10.84 138.15C9.57993 136.612 8.43357 134.984 7.41 133.28C7.30657 133.109 7.27532 132.904 7.32315 132.71C7.37097 132.516 7.49394 132.348 7.665 132.245C7.83607 132.142 8.04122 132.11 8.23532 132.158C8.42942 132.206 8.59657 132.329 8.7 132.5C9.68597 134.144 10.7888 135.714 12 137.2C12.1249 137.353 12.1845 137.549 12.1658 137.745C12.147 137.942 12.0515 138.123 11.9 138.25C11.7661 138.363 11.5954 138.424 11.42 138.42ZM5.79 129.32C5.64473 129.321 5.50219 129.28 5.3797 129.202C5.25721 129.124 5.16004 129.012 5.1 128.88C4.28284 127.07 3.58143 125.209 3 123.31C2.95734 123.125 2.98624 122.931 3.08091 122.767C3.17557 122.602 3.32896 122.48 3.51021 122.424C3.69145 122.369 3.88709 122.384 4.05775 122.466C4.22841 122.549 4.36142 122.693 4.43 122.87C4.98281 124.707 5.6508 126.507 6.43 128.26C6.47191 128.35 6.49558 128.447 6.49964 128.546C6.5037 128.645 6.48807 128.744 6.45366 128.837C6.41925 128.93 6.36674 129.015 6.29917 129.088C6.2316 129.161 6.15031 129.219 6.06 129.26C5.97489 129.298 5.8831 129.318 5.79 129.32ZM2.54 119.11C2.36656 119.108 2.19902 119.047 2.06591 118.935C1.93281 118.824 1.84238 118.67 1.81 118.5C1.42827 116.557 1.15783 114.594 1 112.62C0.98409 112.421 1.04785 112.224 1.17725 112.072C1.30665 111.92 1.49109 111.826 1.69 111.81C1.88891 111.794 2.086 111.858 2.23791 111.987C2.38981 112.117 2.48409 112.301 2.5 112.5C2.64711 114.417 2.90756 116.324 3.28 118.21C3.30032 118.307 3.30109 118.406 3.28228 118.503C3.26347 118.6 3.22546 118.692 3.17048 118.774C3.1155 118.856 3.04466 118.926 2.96215 118.981C2.87963 119.035 2.7871 119.072 2.69 119.09L2.54 119.11ZM1.59 108.43C1.49112 108.43 1.39323 108.41 1.30212 108.372C1.21101 108.333 1.12853 108.277 1.05954 108.206C0.99056 108.135 0.936476 108.051 0.900485 107.959C0.864495 107.867 0.847329 107.769 0.850002 107.67C0.873391 105.691 1.00693 103.714 1.25 101.75C1.25115 101.645 1.27452 101.54 1.31858 101.445C1.36264 101.349 1.42641 101.263 1.50573 101.194C1.58504 101.124 1.67812 101.072 1.77888 101.041C1.87964 101.01 1.98583 101.001 2.09051 101.014C2.19518 101.026 2.296 101.061 2.38638 101.115C2.47675 101.17 2.55465 101.242 2.615 101.329C2.67535 101.415 2.71678 101.514 2.7366 101.617C2.75641 101.721 2.75417 101.827 2.73 101.93C2.49879 103.842 2.37194 105.764 2.35 107.69C2.3487 107.788 2.32801 107.886 2.2891 107.976C2.2502 108.067 2.19386 108.149 2.12328 108.217C2.05271 108.286 1.96929 108.34 1.87779 108.377C1.78629 108.413 1.6885 108.431 1.59 108.43ZM2.81 97.7799C2.75375 97.7897 2.69625 97.7897 2.64 97.7799C2.44676 97.7369 2.27838 97.6191 2.1716 97.4524C2.06482 97.2857 2.0283 97.0835 2.07 96.8899C2.50818 94.9529 3.06931 93.0457 3.75 91.1799C3.78314 91.0826 3.83595 90.9931 3.90514 90.917C3.97434 90.8409 4.05844 90.7799 4.15223 90.7377C4.24601 90.6955 4.34748 90.673 4.45031 90.6717C4.55315 90.6703 4.65516 90.6902 4.75 90.7299C4.84649 90.7643 4.93504 90.8178 5.01033 90.8872C5.08562 90.9567 5.1461 91.0406 5.18813 91.134C5.23016 91.2274 5.25288 91.3284 5.25492 91.4308C5.25696 91.5332 5.23828 91.6349 5.2 91.7299C4.54385 93.5338 4.00277 95.3776 3.58001 97.2499C3.53061 97.4124 3.42755 97.5533 3.28767 97.6496C3.1478 97.7459 2.97939 97.7918 2.81 97.7799ZM6.37 87.6799C6.2547 87.6845 6.14042 87.6568 6.04 87.6C5.95052 87.5582 5.87029 87.499 5.80404 87.4258C5.73779 87.3526 5.68685 87.2669 5.65424 87.1737C5.62162 87.0805 5.60798 86.9818 5.61412 86.8832C5.62027 86.7847 5.64607 86.6884 5.69 86.6C6.56282 84.8178 7.54469 83.0912 8.63 81.4299C8.73929 81.275 8.90318 81.1673 9.08871 81.1283C9.27424 81.0893 9.46764 81.1221 9.63 81.2199C9.78851 81.3261 9.89989 81.4894 9.94088 81.6758C9.98187 81.8621 9.94931 82.057 9.85 82.2199C8.7951 83.8246 7.84318 85.4946 7 87.2199C6.94825 87.3477 6.86185 87.4584 6.75054 87.5397C6.63923 87.621 6.50743 87.6695 6.37 87.6799ZM12.12 78.6799C11.9527 78.6817 11.7901 78.6251 11.66 78.52C11.582 78.4586 11.517 78.3823 11.4687 78.2957C11.4204 78.209 11.3898 78.1136 11.3787 78.015C11.3675 77.9164 11.376 77.8166 11.4037 77.7213C11.4314 77.626 11.4777 77.5372 11.54 77.46C12.7897 75.9162 14.1251 74.4438 15.54 73.05C15.6806 72.9095 15.8713 72.8306 16.07 72.8306C16.2688 72.8306 16.4594 72.9095 16.6 73.05C16.7405 73.1906 16.8193 73.3812 16.8193 73.58C16.8193 73.7787 16.7405 73.9693 16.6 74.1099C15.2372 75.4696 13.9487 76.9016 12.74 78.3999C12.6625 78.4855 12.5661 78.5518 12.4585 78.5935C12.3508 78.6352 12.2349 78.6511 12.12 78.6399V78.6799ZM19.64 70.9999C19.531 70.9997 19.4233 70.9754 19.3248 70.9287C19.2263 70.882 19.1393 70.8142 19.07 70.7299C18.9433 70.5766 18.8818 70.3797 18.8986 70.1816C18.9154 69.9834 19.0093 69.7997 19.16 69.6699C20.6823 68.404 22.2677 67.2158 23.91 66.1099C24.0712 66.0111 24.2638 65.9767 24.4492 66.0138C24.6347 66.0509 24.7992 66.1567 24.91 66.3099C25.0216 66.476 25.0632 66.6795 25.0258 66.876C24.9883 67.0726 24.8749 67.2465 24.71 67.3599C23.1077 68.4358 21.5623 69.594 20.08 70.83C19.9544 70.9307 19.8007 70.9901 19.64 70.9999Z" fill="#E0E0E0"/>
    <path d="M26.14 149.61C26.0327 149.611 25.9266 149.587 25.83 149.54C24.9 149.12 23.98 148.67 23.1 148.19C23.014 148.145 22.9377 148.083 22.8755 148.008C22.8134 147.933 22.7666 147.847 22.7378 147.754C22.709 147.661 22.6988 147.564 22.7077 147.467C22.7167 147.37 22.7447 147.276 22.79 147.19C22.8834 147.018 23.0402 146.89 23.227 146.832C23.4138 146.774 23.6158 146.791 23.79 146.88C24.65 147.34 25.54 147.78 26.44 148.19C26.5943 148.262 26.7197 148.384 26.7954 148.536C26.8711 148.689 26.8927 148.863 26.8566 149.029C26.8206 149.195 26.729 149.344 26.5969 149.452C26.4649 149.559 26.3002 149.619 26.13 149.62L26.14 149.61Z" fill="#E0E0E0"/>
    <path d="M368.19 113.32L410.49 86.24L429.12 92.22L368.19 113.32Z" fill="#00BBC9"/>
    <path d="M368.19 113.32L404.75 82.84L396.62 73.46L368.19 113.32Z" fill="#00BBC9"/>
    <path d="M404.75 82.84V89.91L368.19 113.32L404.75 82.84Z" fill="#455A64"/>
    <path d="M413 79.89C412.819 79.8907 412.644 79.8228 412.51 79.7C412.362 79.5674 412.272 79.3823 412.259 79.1842C412.246 78.9862 412.311 78.7908 412.44 78.64C413.742 77.1874 414.898 75.6097 415.89 73.93C415.991 73.7576 416.156 73.6323 416.349 73.5817C416.542 73.531 416.748 73.5592 416.92 73.66C417.092 73.7608 417.218 73.9259 417.268 74.1191C417.319 74.3122 417.291 74.5176 417.19 74.69C416.143 76.4508 414.931 78.1083 413.57 79.64C413.498 79.72 413.411 79.7838 413.312 79.8269C413.214 79.87 413.107 79.8915 413 79.89ZM418.72 70.57C418.631 70.5842 418.539 70.5842 418.45 70.57C418.355 70.5338 418.269 70.4788 418.196 70.4083C418.123 70.3378 418.065 70.2533 418.026 70.1598C417.987 70.0663 417.967 69.9659 417.968 69.8645C417.968 69.7631 417.99 69.6629 418.03 69.57C418.737 67.7485 419.266 65.8631 419.61 63.94C419.646 63.7437 419.758 63.5697 419.922 63.4563C420.086 63.3428 420.289 63.2992 420.485 63.335C420.681 63.3708 420.855 63.4831 420.969 63.6472C421.082 63.8113 421.126 64.0137 421.09 64.21C420.722 66.2251 420.162 68.2007 419.42 70.11C419.363 70.2484 419.266 70.3664 419.141 70.4486C419.016 70.5307 418.87 70.573 418.72 70.57ZM420.86 59.84C420.762 59.8387 420.665 59.8179 420.575 59.7789C420.485 59.7399 420.404 59.6834 420.336 59.6127C420.268 59.542 420.215 59.4585 420.18 59.367C420.144 59.2756 420.127 59.178 420.13 59.08C420.13 58.82 420.13 58.56 420.13 58.3C420.126 56.6023 419.992 54.9074 419.73 53.23C419.701 53.0326 419.751 52.8319 419.869 52.671C419.987 52.5101 420.163 52.402 420.36 52.37C420.557 52.3438 420.756 52.3947 420.917 52.5121C421.077 52.6295 421.186 52.8043 421.22 53C421.49 54.7538 421.627 56.5255 421.63 58.3C421.63 58.57 421.63 58.84 421.63 59.11C421.622 59.308 421.537 59.4952 421.393 59.6316C421.25 59.768 421.058 59.8427 420.86 59.84ZM419.35 49C419.189 48.9994 419.033 48.9464 418.904 48.849C418.776 48.7515 418.684 48.615 418.64 48.46C418.066 46.5837 417.347 44.7548 416.49 42.99C416.446 42.9016 416.42 42.8053 416.414 42.7067C416.408 42.6082 416.422 42.5094 416.454 42.4162C416.487 42.323 416.538 42.2373 416.604 42.1641C416.67 42.0909 416.751 42.0317 416.84 41.99C417.019 41.904 417.225 41.8926 417.412 41.9582C417.6 42.0238 417.754 42.1611 417.84 42.34C418.734 44.1739 419.48 46.0767 420.07 48.03C420.099 48.1239 420.109 48.2226 420.1 48.3204C420.09 48.4183 420.062 48.5133 420.015 48.5999C419.969 48.6864 419.905 48.7629 419.829 48.8247C419.752 48.8865 419.664 48.9325 419.57 48.96C419.5 48.9877 419.425 49.0013 419.35 49ZM414.71 39.07C414.584 39.0712 414.459 39.0395 414.349 38.9782C414.238 38.9168 414.146 38.8279 414.08 38.72C413.008 37.0743 411.829 35.5009 410.55 34.01C410.485 33.9352 410.436 33.8485 410.405 33.7547C410.374 33.6609 410.362 33.5619 410.37 33.4634C410.377 33.3649 410.404 33.2688 410.449 33.1807C410.493 33.0926 410.555 33.0142 410.63 32.95C410.704 32.8857 410.79 32.8368 410.883 32.806C410.976 32.7752 411.074 32.7632 411.172 32.7706C411.269 32.778 411.365 32.8048 411.452 32.8493C411.539 32.8939 411.617 32.9553 411.68 33.03C413.007 34.5732 414.23 36.2035 415.34 37.91C415.432 38.0747 415.461 38.2675 415.42 38.4518C415.38 38.6362 415.273 38.7993 415.12 38.91C415 38.998 414.858 39.05 414.71 39.06V39.07ZM407.71 30.66C407.519 30.6594 407.336 30.584 407.2 30.45C405.76 29.1022 404.248 27.8337 402.67 26.65C402.591 26.5909 402.525 26.5169 402.475 26.4321C402.424 26.3474 402.391 26.2536 402.378 26.1561C402.364 26.0586 402.369 25.9593 402.393 25.8638C402.418 25.7684 402.461 25.6788 402.52 25.6C402.579 25.5212 402.653 25.4548 402.738 25.4046C402.823 25.3545 402.916 25.3215 403.014 25.3075C403.111 25.2936 403.211 25.299 403.306 25.3234C403.402 25.3479 403.491 25.3909 403.57 25.45C405.195 26.6649 406.751 27.9703 408.23 29.36C408.341 29.4631 408.419 29.5974 408.452 29.7453C408.485 29.8933 408.473 30.0478 408.417 30.1886C408.36 30.3294 408.263 30.4498 408.136 30.5339C408.01 30.6181 407.862 30.662 407.71 30.66ZM398.94 24C398.798 23.9987 398.659 23.957 398.54 23.88C397.86 23.46 397.15 23.04 396.43 22.63C395.43 22.07 394.43 21.51 393.37 20.98C393.273 20.9412 393.186 20.8826 393.113 20.8081C393.04 20.7335 392.983 20.6446 392.947 20.547C392.91 20.4493 392.894 20.3451 392.9 20.2411C392.906 20.137 392.934 20.0353 392.981 19.9424C393.029 19.8496 393.095 19.7677 393.176 19.7019C393.257 19.6362 393.351 19.588 393.451 19.5605C393.552 19.5329 393.657 19.5267 393.76 19.5421C393.863 19.5575 393.962 19.5943 394.05 19.65C395.1 20.19 396.15 20.75 397.17 21.33C397.91 21.74 398.63 22.17 399.33 22.61C399.492 22.7131 399.608 22.8743 399.654 23.0602C399.701 23.2462 399.674 23.4429 399.58 23.61C399.515 23.7241 399.423 23.8199 399.311 23.8881C399.199 23.9564 399.071 23.9949 398.94 24ZM309.29 23.49C309.158 23.4886 309.029 23.4528 308.915 23.3861C308.801 23.3195 308.706 23.2243 308.64 23.11C308.545 22.9411 308.52 22.7418 308.571 22.5549C308.621 22.3679 308.743 22.2082 308.91 22.11C310.65 21.11 312.44 20.11 314.25 19.27C314.428 19.1833 314.633 19.1704 314.82 19.2341C315.007 19.2978 315.162 19.4329 315.25 19.61C315.333 19.7894 315.343 19.9943 315.278 20.181C315.213 20.3678 315.077 20.5216 314.9 20.61C313.12 21.48 311.36 22.41 309.65 23.4C309.538 23.4544 309.414 23.4786 309.29 23.47V23.49ZM389.19 18.92C389.086 18.9206 388.983 18.8967 388.89 18.85C387.09 18.06 385.23 17.32 383.37 16.66C383.182 16.5924 383.028 16.4527 382.943 16.2717C382.857 16.0907 382.847 15.8833 382.915 15.695C382.983 15.5067 383.122 15.353 383.303 15.2676C383.484 15.1823 383.692 15.1724 383.88 15.24C385.77 15.92 387.66 16.67 389.5 17.48C389.66 17.5482 389.792 17.6702 389.872 17.8249C389.953 17.9797 389.976 18.1576 389.94 18.328C389.903 18.4984 389.808 18.6507 389.671 18.7588C389.534 18.8668 389.364 18.9238 389.19 18.92ZM319.14 18.61C318.992 18.611 318.848 18.5677 318.725 18.4857C318.602 18.4037 318.506 18.2868 318.45 18.15C318.409 18.0583 318.387 17.9593 318.385 17.8588C318.383 17.7584 318.401 17.6586 318.438 17.5653C318.476 17.472 318.531 17.3872 318.602 17.3159C318.673 17.2445 318.757 17.1881 318.85 17.15C320.7 16.37 322.6 15.65 324.5 15C324.595 14.9604 324.698 14.941 324.801 14.943C324.905 14.945 325.007 14.9683 325.1 15.0115C325.194 15.0547 325.278 15.1168 325.347 15.194C325.416 15.2712 325.468 15.3617 325.5 15.46C325.536 15.5564 325.553 15.6591 325.549 15.7621C325.545 15.865 325.52 15.9661 325.476 16.0594C325.433 16.1526 325.371 16.2361 325.294 16.3049C325.217 16.3738 325.127 16.4265 325.03 16.46C323.16 17.1 321.28 17.81 319.47 18.57C319.363 18.5999 319.25 18.6067 319.14 18.59V18.61ZM378.87 15.15C378.8 15.1597 378.73 15.1597 378.66 15.15C376.77 14.6 374.83 14.15 372.9 13.68C372.803 13.659 372.712 13.6192 372.631 13.5628C372.55 13.5065 372.481 13.4347 372.427 13.3516C372.374 13.2685 372.337 13.1757 372.32 13.0784C372.302 12.9812 372.304 12.8815 372.325 12.785C372.346 12.6885 372.386 12.597 372.442 12.5159C372.499 12.4348 372.57 12.3655 372.653 12.3121C372.737 12.2587 372.829 12.2222 372.927 12.2047C373.024 12.1872 373.123 12.189 373.22 12.21C375.22 12.64 377.16 13.15 379.08 13.71C379.253 13.7605 379.403 13.8719 379.5 14.0237C379.598 14.1754 379.638 14.3573 379.612 14.5361C379.587 14.7148 379.498 14.8783 379.361 14.9966C379.225 15.1149 379.051 15.18 378.87 15.18V15.15ZM329.52 15C329.356 14.9994 329.198 14.9453 329.068 14.846C328.938 14.7467 328.844 14.6076 328.8 14.45C328.773 14.3561 328.764 14.2577 328.775 14.1605C328.786 14.0633 328.816 13.9691 328.863 13.8836C328.91 13.798 328.974 13.7227 329.051 13.662C329.128 13.6013 329.216 13.5565 329.31 13.53C331.24 12.99 333.22 12.53 335.19 12.09C335.29 12.0581 335.395 12.0475 335.499 12.0589C335.604 12.0703 335.704 12.1033 335.795 12.156C335.885 12.2086 335.964 12.2797 336.025 12.3645C336.087 12.4494 336.13 12.5462 336.152 12.6487C336.173 12.7512 336.173 12.8571 336.152 12.9597C336.13 13.0622 336.087 13.159 336.026 13.2439C335.964 13.3288 335.886 13.4 335.795 13.4527C335.705 13.5054 335.604 13.5385 335.5 13.55C333.56 13.96 331.62 14.44 329.72 14.97L329.52 15ZM368.15 12.74H368C366.05 12.43 364.06 12.18 362.1 12C361.997 11.9989 361.895 11.9764 361.801 11.934C361.706 11.8917 361.622 11.8303 361.553 11.7538C361.483 11.6772 361.43 11.5872 361.397 11.4893C361.364 11.3914 361.352 11.2877 361.361 11.1848C361.37 11.0819 361.4 10.982 361.45 10.8913C361.499 10.8006 361.567 10.721 361.648 10.6577C361.73 10.5943 361.824 10.5485 361.924 10.5231C362.024 10.4977 362.128 10.4932 362.23 10.51C364.23 10.69 366.23 10.94 368.23 11.26C368.425 11.2943 368.599 11.4034 368.715 11.564C368.831 11.7246 368.879 11.9241 368.85 12.12C368.815 12.2818 368.727 12.4275 368.6 12.5342C368.474 12.6409 368.315 12.7027 368.15 12.71V12.74ZM340.26 12.67C340.082 12.6699 339.91 12.6065 339.774 12.4911C339.639 12.3756 339.548 12.2157 339.52 12.04C339.491 11.8426 339.541 11.6419 339.659 11.481C339.777 11.3201 339.953 11.212 340.15 11.18C342.15 10.88 344.15 10.63 346.15 10.46C346.248 10.4514 346.348 10.4624 346.442 10.4922C346.536 10.522 346.624 10.5701 346.699 10.6337C346.775 10.6973 346.837 10.7752 346.883 10.8629C346.929 10.9507 346.956 11.0465 346.965 11.145C346.974 11.2435 346.963 11.3427 346.933 11.4369C346.903 11.5312 346.855 11.6187 346.791 11.6944C346.728 11.77 346.65 11.8324 346.562 11.878C346.474 11.9236 346.378 11.9514 346.28 11.96C344.28 12.13 342.33 12.36 340.38 12.67H340.26ZM357.21 11.67C355.21 11.6 353.21 11.59 351.26 11.67C351.162 11.6754 351.063 11.6608 350.971 11.6272C350.878 11.5936 350.793 11.5416 350.721 11.4743C350.649 11.407 350.592 11.3259 350.552 11.2358C350.512 11.1457 350.491 11.0485 350.49 10.95C350.486 10.8511 350.502 10.7525 350.537 10.6599C350.571 10.5673 350.624 10.4826 350.692 10.4108C350.76 10.339 350.842 10.2816 350.933 10.242C351.023 10.2023 351.121 10.1812 351.22 10.18C353.22 10.11 355.22 10.12 357.22 10.18C357.319 10.1826 357.416 10.2046 357.506 10.2447C357.596 10.2848 357.677 10.3422 357.745 10.4137C357.812 10.4852 357.865 10.5694 357.901 10.6614C357.936 10.7534 357.953 10.8515 357.95 10.95C357.935 11.1376 357.851 11.313 357.715 11.4423C357.578 11.5716 357.398 11.6456 357.21 11.65V11.67Z" fill="#E0E0E0"/>
    <path d="M38.08 238.91C37.58 239.18 28.4 241.78 25 237.29C21.6 232.8 27.25 225.8 24.06 223.22C20.87 220.64 11.93 223.22 9.78002 217.8C7.63002 212.38 14 210.04 10.42 204.57C8.16002 201.12 1.84002 199.22 2.13002 196.01C2.55002 191.32 11.19 190.01 18.73 195.08C26.27 200.15 29.79 195.99 32.18 195.65C34.57 195.31 39.73 196.06 39.57 204.46C39.41 212.86 38.08 238.91 38.08 238.91Z" fill="#00BBC9"/>
    <path d="M38.69 227C38.5707 227 38.4553 226.957 38.364 226.881C38.2726 226.804 38.2111 226.697 38.19 226.58C35.56 210.58 17.03 197.65 7.38999 194.87C7.32622 194.853 7.26658 194.823 7.21465 194.782C7.16273 194.741 7.11959 194.69 7.08783 194.632C7.05607 194.575 7.03635 194.511 7.02985 194.445C7.02334 194.379 7.0302 194.313 7.04999 194.25C7.08713 194.123 7.17331 194.015 7.28958 193.952C7.40585 193.888 7.54269 193.873 7.66999 193.91C17.52 196.76 36.48 210.05 39.18 226.42C39.2003 226.55 39.1686 226.682 39.0919 226.789C39.0152 226.896 38.8995 226.968 38.77 226.99L38.69 227Z" fill="white"/>
    <path d="M16.83 213.61C16.7201 213.611 16.6128 213.576 16.5249 213.51C16.4369 213.444 16.3732 213.351 16.3436 213.245C16.314 213.139 16.3201 213.026 16.3611 212.924C16.402 212.822 16.4754 212.736 16.57 212.68C16.87 212.5 24.01 208.33 31.03 210.28C31.1626 210.314 31.2761 210.4 31.3455 210.518C31.4149 210.636 31.4345 210.777 31.4 210.91C31.3656 211.043 31.2798 211.156 31.1617 211.225C31.0435 211.295 30.9026 211.314 30.77 211.28C24.15 209.44 17.15 213.53 17.08 213.57C17.0022 213.607 16.9155 213.621 16.83 213.61Z" fill="white"/>
    <path d="M299.5 154.42C303.44 154.96 310.15 152.68 310.63 146.12C311.11 139.56 313.82 137.78 318.79 136.71C323.76 135.64 325.22 133.91 325.79 130.79C326.36 127.67 322.58 123.94 323.64 119.24C324.7 114.54 328.24 114.55 331.72 109.24C333.95 105.82 329.38 100.6 321.77 102.84C314.16 105.08 314.77 109.99 307.16 110.62C299.55 111.25 294.78 115.87 294.63 121.62C294.48 127.37 299.5 154.42 299.5 154.42Z" fill="#00BBC9"/>
    <path opacity="0.2" d="M299.5 154.42C303.44 154.96 310.15 152.68 310.63 146.12C311.11 139.56 313.82 137.78 318.79 136.71C323.76 135.64 325.22 133.91 325.79 130.79C326.36 127.67 322.58 123.94 323.64 119.24C324.7 114.54 328.24 114.55 331.72 109.24C333.95 105.82 329.38 100.6 321.77 102.84C314.16 105.08 314.77 109.99 307.16 110.62C299.55 111.25 294.78 115.87 294.63 121.62C294.48 127.37 299.5 154.42 299.5 154.42Z" fill="black"/>
    <path d="M298.06 141.84H298C297.936 141.827 297.874 141.801 297.82 141.764C297.766 141.728 297.719 141.681 297.683 141.626C297.647 141.571 297.621 141.51 297.609 141.445C297.596 141.381 297.597 141.314 297.61 141.25C301.29 123.06 321.36 106.41 326.25 104.71C326.383 104.666 326.527 104.677 326.652 104.74C326.777 104.803 326.871 104.912 326.915 105.045C326.959 105.178 326.948 105.322 326.885 105.447C326.822 105.572 326.713 105.666 326.58 105.71C321.8 107.37 302.19 123.71 298.58 141.5C298.543 141.606 298.472 141.697 298.378 141.758C298.284 141.82 298.172 141.848 298.06 141.84Z" fill="white"/>
    <path d="M33.88 135.39C33.9289 134.488 34.1898 133.611 34.6415 132.829C35.0933 132.047 35.7232 131.383 36.48 130.89L169.39 54.15C170.195 53.7454 171.084 53.5347 171.985 53.5347C172.886 53.5347 173.775 53.7454 174.58 54.15L177.51 55.85C178.268 56.3409 178.9 57.0048 179.352 57.787C179.804 58.5693 180.064 59.4477 180.11 60.35V162.23C180.059 163.131 179.797 164.008 179.345 164.789C178.894 165.571 178.265 166.236 177.51 166.73L44.6 243.46C43.7944 243.869 42.9036 244.083 42 244.083C41.0964 244.083 40.2056 243.869 39.4 243.46L36.48 241.77C35.7243 241.276 35.0953 240.612 34.6436 239.83C34.192 239.048 33.9304 238.171 33.88 237.27V135.39Z" fill="#00BBC9"/>
    <path opacity="0.3" d="M33.88 135.39C33.9289 134.488 34.1898 133.611 34.6415 132.829C35.0933 132.047 35.7232 131.383 36.48 130.89L169.39 54.15C170.195 53.7454 171.084 53.5347 171.985 53.5347C172.886 53.5347 173.775 53.7454 174.58 54.15L177.51 55.85C178.268 56.3409 178.9 57.0048 179.352 57.787C179.804 58.5693 180.064 59.4477 180.11 60.35V162.23C180.059 163.131 179.797 164.008 179.345 164.789C178.894 165.571 178.265 166.236 177.51 166.73L44.6 243.46C43.7944 243.869 42.9036 244.083 42 244.083C41.0964 244.083 40.2056 243.869 39.4 243.46L36.48 241.77C35.7243 241.276 35.0953 240.612 34.6436 239.83C34.192 239.048 33.9304 238.171 33.88 237.27V135.39Z" fill="black"/>
    <path d="M46.06 139.43L34.64 132.83C34.1731 133.605 33.9116 134.486 33.88 135.39V237.27C33.9304 238.171 34.192 239.048 34.6436 239.83C35.0953 240.612 35.7243 241.276 36.48 241.77L39.4 243.46C40.2056 243.869 41.0964 244.083 42 244.083C42.9036 244.083 43.7944 243.869 44.6 243.46L46.06 242.62V139.43Z" fill="#00BBC9"/>
    <path opacity="0.5" d="M46.06 139.43L34.64 132.83C34.1731 133.605 33.9116 134.486 33.88 135.39V237.27C33.9304 238.171 34.192 239.048 34.6436 239.83C35.0953 240.612 35.7243 241.276 36.48 241.77L39.4 243.46C40.2056 243.869 41.0964 244.083 42 244.083C42.9036 244.083 43.7944 243.869 44.6 243.46L46.06 242.62V139.43Z" fill="black"/>
    <path d="M180.11 60.35V162.23C180.076 163.163 179.797 164.07 179.3 164.86C178.916 165.525 178.398 166.104 177.78 166.56L177.68 166.62L177.51 166.73L44.6 243.46C44.3456 243.64 44.0501 243.752 43.7407 243.787C43.4312 243.822 43.118 243.778 42.83 243.66C42.5531 243.486 42.3294 243.239 42.1831 242.946C42.0367 242.653 41.9734 242.326 42 242V140.08C41.9774 139.715 42.0436 139.35 42.1929 139.017C42.3422 138.683 42.5702 138.391 42.8572 138.165C43.1443 137.939 43.482 137.785 43.8413 137.718C44.2005 137.651 44.5707 137.673 44.92 137.78L100.81 151.07L108.13 152.81C108.994 152.972 109.886 152.894 110.709 152.586C111.532 152.277 112.255 151.75 112.8 151.06L121.28 139.25L178.36 59.78C179.32 58.44 180.11 58.69 180.11 60.35Z" fill="#00BBC9"/>
    <path opacity="0.2" d="M180.11 60.35V162.23C180.076 163.163 179.797 164.07 179.3 164.86C178.916 165.525 178.398 166.104 177.78 166.56L177.68 166.62L177.51 166.73L44.6 243.46C44.3456 243.64 44.0501 243.752 43.7407 243.787C43.4312 243.822 43.118 243.778 42.83 243.66C42.5531 243.486 42.3294 243.239 42.1831 242.946C42.0367 242.653 41.9734 242.326 42 242V140.08C41.9774 139.715 42.0436 139.35 42.1929 139.017C42.3422 138.683 42.5702 138.391 42.8572 138.165C43.1443 137.939 43.482 137.785 43.8413 137.718C44.2005 137.651 44.5707 137.673 44.92 137.78L100.81 151.07L108.13 152.81C108.994 152.972 109.886 152.894 110.709 152.586C111.532 152.277 112.255 151.75 112.8 151.06L121.28 139.25L178.36 59.78C179.32 58.44 180.11 58.69 180.11 60.35Z" fill="black"/>
    <path d="M177.51 166.73L177.68 166.62L177.78 166.56C178.399 166.104 178.916 165.525 179.3 164.86C179.791 164.082 180.071 163.189 180.11 162.27L121.28 139.27L160.68 176.47L177.51 166.73Z" fill="#00BBC9"/>
    <path opacity="0.6" d="M177.51 166.73L177.68 166.62L177.78 166.56C178.399 166.104 178.916 165.525 179.3 164.86C179.791 164.082 180.071 163.189 180.11 162.27L121.28 139.27L160.68 176.47L177.51 166.73Z" fill="black"/>
    <path d="M42 242C41.9618 242.332 42.0174 242.669 42.1606 242.971C42.3038 243.273 42.5287 243.529 42.81 243.71C43.098 243.828 43.4113 243.872 43.7207 243.837C44.0301 243.802 44.3256 243.69 44.58 243.51L90.36 217L100.81 151L42 240.27V242Z" fill="#00BBC9"/>
    <path opacity="0.6" d="M42 242C41.9618 242.332 42.0174 242.669 42.1606 242.971C42.3038 243.273 42.5287 243.529 42.81 243.71C43.098 243.828 43.4113 243.872 43.7207 243.837C44.0301 243.802 44.3256 243.69 44.58 243.51L90.36 217L100.81 151L42 240.27V242Z" fill="black"/>
    <path d="M179.3 164.86C178.916 165.525 178.399 166.104 177.78 166.56L177.68 166.62L44.6 243.46C44.3457 243.64 44.0501 243.752 43.7407 243.787C43.4313 243.822 43.118 243.778 42.83 243.66L106.48 142.05C107.759 140.015 109.729 138.508 112.028 137.807C114.327 137.105 116.802 137.256 119 138.23L179.3 164.86Z" fill="#00BBC9"/>
    <path opacity="0.2" d="M179.3 164.86C178.916 165.525 178.399 166.104 177.78 166.56L177.68 166.62L44.6 243.46C44.3457 243.64 44.0501 243.752 43.7407 243.787C43.4313 243.822 43.118 243.778 42.83 243.66L106.48 142.05C107.759 140.015 109.729 138.508 112.028 137.807C114.327 137.105 116.802 137.256 119 138.23L179.3 164.86Z" fill="black"/>
    <path d="M42 137.08L103.13 164.08C105.331 165.052 107.808 165.197 110.108 164.49C112.408 163.783 114.375 162.27 115.65 160.23L179.84 57.5L42 137.08Z" fill="#00BBC9"/>
    <path opacity="0.6" d="M42 137.08L103.13 164.08C105.331 165.052 107.808 165.197 110.108 164.49C112.408 163.783 114.375 162.27 115.65 160.23L179.84 57.5L42 137.08Z" fill="black"/>
    <path d="M42 137.08L103.56 160.08C105.687 160.874 108.022 160.921 110.179 160.212C112.336 159.503 114.188 158.081 115.43 156.18L179.84 57.5L42 137.08Z" fill="#00BBC9"/>
    <path opacity="0.2" d="M42 137.08L103.56 160.08C105.687 160.874 108.022 160.921 110.179 160.212C112.336 159.503 114.188 158.081 115.43 156.18L179.84 57.5L42 137.08Z" fill="black"/>
    <path d="M56.58 147.94C56.6265 147.038 56.8864 146.159 57.3384 145.377C57.7904 144.595 58.4215 143.931 59.18 143.44L192.09 66.7C192.896 66.2907 193.786 66.0773 194.69 66.0773C195.594 66.0773 196.484 66.2907 197.29 66.7L200.22 68.39C200.975 68.8837 201.603 69.5485 202.053 70.3304C202.503 71.1122 202.762 71.9891 202.81 72.89V174.77C202.761 175.67 202.501 176.547 202.051 177.328C201.601 178.11 200.974 178.775 200.22 179.27L67.3 256C66.4948 256.405 65.6062 256.615 64.705 256.615C63.8039 256.615 62.9152 256.405 62.11 256L59.18 254.31C58.4249 253.816 57.7962 253.151 57.3447 252.369C56.8931 251.588 56.6312 250.711 56.58 249.81V147.94Z" fill="#455A64"/>
    <path d="M56.58 147.94C56.6265 147.038 56.8864 146.159 57.3384 145.377C57.7904 144.595 58.4215 143.931 59.18 143.44L192.09 66.7C192.896 66.2907 193.786 66.0773 194.69 66.0773C195.594 66.0773 196.484 66.2907 197.29 66.7L200.22 68.39C200.975 68.8837 201.603 69.5485 202.053 70.3304C202.503 71.1122 202.762 71.9891 202.81 72.89V174.77C202.761 175.67 202.501 176.547 202.051 177.328C201.601 178.11 200.974 178.775 200.22 179.27L67.3 256C66.4948 256.405 65.6062 256.615 64.705 256.615C63.8039 256.615 62.9152 256.405 62.11 256L59.18 254.31C58.4249 253.816 57.7962 253.151 57.3447 252.369C56.8931 251.588 56.6312 250.711 56.58 249.81V147.94Z" fill="#455A64"/>
    <path d="M68.77 152L57.34 145.41C56.8719 146.184 56.6103 147.066 56.58 147.97V249.82C56.6312 250.721 56.8931 251.598 57.3447 252.379C57.7962 253.161 58.4249 253.826 59.18 254.32L62.11 256.01C62.9152 256.415 63.8039 256.625 64.705 256.625C65.6062 256.625 66.4948 256.415 67.3 256.01L68.77 255.16V152Z" fill="#263238"/>
    <path d="M202.82 72.89V174.77C202.786 175.703 202.507 176.61 202.01 177.4C201.626 178.065 201.108 178.644 200.49 179.1L200.39 179.16L200.22 179.27L67.31 256C67.0556 256.18 66.76 256.292 66.4506 256.327C66.1412 256.362 65.828 256.318 65.54 256.2C65.2587 256.019 65.0337 255.763 64.8906 255.461C64.7474 255.159 64.6918 254.822 64.73 254.49V152.62C64.7074 152.255 64.7735 151.89 64.9229 151.557C65.0722 151.223 65.3001 150.931 65.5872 150.705C65.8743 150.479 66.212 150.325 66.5712 150.258C66.9305 150.191 67.3007 150.213 67.65 150.32L123.54 163.61L130.86 165.35C131.724 165.512 132.616 165.434 133.439 165.126C134.262 164.817 134.985 164.29 135.53 163.6L144 151.79L201.08 72.32C202 71 202.82 71.23 202.82 72.89Z" fill="#37474F"/>
    <path d="M200.22 179.27L200.39 179.16L200.49 179.1C201.108 178.644 201.626 178.065 202.01 177.4C202.495 176.624 202.771 175.735 202.81 174.82L143.99 151.82L183.38 189L200.22 179.27Z" fill="#263238"/>
    <path d="M64.71 254.5C64.6718 254.832 64.7274 255.168 64.8706 255.471C65.0138 255.773 65.2387 256.029 65.52 256.21C65.808 256.328 66.1212 256.372 66.4307 256.337C66.7401 256.302 67.0356 256.19 67.29 256.01L113.05 229.59L123.5 163.59L64.69 252.79L64.71 254.5Z" fill="#263238"/>
    <path d="M202 177.4C201.616 178.065 201.099 178.644 200.48 179.1L200.38 179.16L67.31 256C67.0557 256.18 66.7601 256.292 66.4507 256.327C66.1413 256.362 65.8281 256.318 65.54 256.2L129.18 154.6C130.456 152.561 132.425 151.051 134.724 150.345C137.024 149.64 139.5 149.787 141.7 150.76L202 177.4Z" fill="#37474F"/>
    <path d="M64.71 149.63L125.84 176.63C128.04 177.599 130.515 177.743 132.812 177.036C135.11 176.329 137.076 174.818 138.35 172.78L202.54 70L64.71 149.63Z" fill="#263238"/>
    <path d="M64.71 149.63L126.26 172.63C128.389 173.427 130.725 173.475 132.885 172.766C135.044 172.057 136.898 170.633 138.14 168.73L202.54 70L64.71 149.63Z" fill="#37474F"/>
    <path d="M154.07 228.81V126.93C154.163 124.997 154.767 123.123 155.82 121.5L219.21 33.23C220.367 31.6173 221.977 30.3853 223.836 29.6908C225.695 28.9963 227.719 28.8707 229.65 29.33L289.26 43.5C291.181 44.0113 293.034 44.7498 294.78 45.7L297.71 47.39C298.463 47.8855 299.09 48.5507 299.54 49.3322C299.99 50.1137 300.25 50.9897 300.3 51.89V153.77C300.248 154.67 299.987 155.545 299.538 156.327C299.088 157.108 298.462 157.773 297.71 158.27L164.79 235C163.985 235.407 163.097 235.619 162.195 235.619C161.293 235.619 160.405 235.407 159.6 235L156.67 233.31C155.914 232.816 155.285 232.152 154.834 231.37C154.382 230.588 154.12 229.711 154.07 228.81Z" fill="#00BBC9"/>
    <path opacity="0.3" d="M154.07 228.81V126.93C154.163 124.997 154.767 123.123 155.82 121.5L219.21 33.23C220.367 31.6173 221.977 30.3853 223.836 29.6908C225.695 28.9963 227.719 28.8707 229.65 29.33L289.26 43.5C291.181 44.0113 293.034 44.7498 294.78 45.7L297.71 47.39C298.463 47.8855 299.09 48.5507 299.54 49.3322C299.99 50.1137 300.25 50.9897 300.3 51.89V153.77C300.248 154.67 299.987 155.545 299.538 156.327C299.088 157.108 298.462 157.773 297.71 158.27L164.79 235C163.985 235.407 163.097 235.619 162.195 235.619C161.293 235.619 160.405 235.407 159.6 235L156.67 233.31C155.914 232.816 155.285 232.152 154.834 231.37C154.382 230.588 154.12 229.711 154.07 228.81Z" fill="white"/>
    <path d="M166.25 77.69V207.69C166.25 209.34 167.42 210.02 168.85 209.19L293.64 137.19C294.397 136.698 295.028 136.034 295.48 135.252C295.931 134.47 296.192 133.592 296.24 132.69V2.68996C296.24 1.02996 295.08 0.359955 293.64 1.18996L168.85 73.19C168.093 73.6826 167.463 74.3469 167.012 75.1288C166.56 75.9108 166.299 76.7882 166.25 77.69Z" fill="#FAFAFA"/>
    <path d="M167.69 210.06C167.368 210.062 167.05 209.98 166.77 209.82C166.428 209.592 166.154 209.275 165.978 208.903C165.802 208.532 165.73 208.119 165.77 207.71V77.71C165.817 76.7191 166.101 75.7539 166.597 74.8947C167.092 74.0355 167.786 73.307 168.62 72.77L293.41 0.769975C293.736 0.504653 294.135 0.344727 294.553 0.311441C294.972 0.278154 295.391 0.373082 295.755 0.583619C296.118 0.794156 296.409 1.11033 296.589 1.49014C296.768 1.86994 296.828 2.2954 296.76 2.70998V132.71C296.713 133.7 296.43 134.664 295.934 135.522C295.439 136.379 294.744 137.106 293.91 137.64L169.12 209.64C168.689 209.904 168.196 210.049 167.69 210.06ZM294.8 1.27998C294.477 1.29845 294.164 1.3982 293.89 1.56998L169.1 73.62C168.421 74.0709 167.855 74.673 167.447 75.3791C167.04 76.0852 166.801 76.8762 166.75 77.69V207.69C166.69 207.924 166.708 208.172 166.802 208.395C166.896 208.618 167.06 208.805 167.27 208.926C167.479 209.047 167.723 209.096 167.963 209.066C168.203 209.036 168.427 208.929 168.6 208.76L293.39 136.76C294.07 136.31 294.636 135.708 295.044 135.001C295.452 134.295 295.69 133.504 295.74 132.69V2.68998C295.768 2.45546 295.736 2.21761 295.647 1.9989C295.558 1.78019 295.414 1.58784 295.23 1.43998C295.104 1.34869 294.955 1.29339 294.8 1.27998Z" fill="#E0E0E0"/>
    <path d="M163.56 129.41L154.56 124.21C154.269 125.088 154.107 126.005 154.08 126.93V228.81C154.13 229.711 154.392 230.588 154.844 231.37C155.295 232.152 155.924 232.816 156.68 233.31L159.6 235C160.404 235.409 161.293 235.622 162.195 235.622C163.097 235.622 163.986 235.409 164.79 235L166.04 234.29L163.56 129.41Z" fill="#00BBC9"/>
    <g opacity="0.1">
    <path d="M163.56 129.41L154.56 124.21C154.269 125.088 154.107 126.005 154.08 126.93V228.81C154.13 229.711 154.392 230.588 154.844 231.37C155.295 232.152 155.924 232.816 156.68 233.31L159.6 235C160.404 235.409 161.293 235.622 162.195 235.622C163.097 235.622 163.986 235.409 164.79 235L166.04 234.29L163.56 129.41Z" fill="black"/>
    </g>
    <path d="M300.31 51.89V153.77C300.276 154.703 299.997 155.61 299.5 156.4C299.116 157.065 298.598 157.644 297.98 158.1L297.88 158.16L297.71 158.27L164.8 235C164.546 235.18 164.25 235.292 163.941 235.327C163.631 235.362 163.318 235.318 163.03 235.2C162.749 235.019 162.524 234.763 162.381 234.461C162.237 234.159 162.182 233.822 162.22 233.49V131.62C162.197 131.255 162.264 130.89 162.413 130.557C162.562 130.223 162.79 129.931 163.077 129.705C163.364 129.479 163.702 129.325 164.061 129.258C164.421 129.191 164.791 129.213 165.14 129.32L221 142.61L228.32 144.35C229.185 144.514 230.079 144.437 230.904 144.129C231.73 143.82 232.454 143.292 233 142.6L241.48 130.79L298.56 51.32C299.52 50 300.31 50.23 300.31 51.89Z" fill="#00BBC9"/>
    <path opacity="0.3" d="M300.31 51.89V153.77C300.276 154.703 299.997 155.61 299.5 156.4C299.116 157.065 298.598 157.644 297.98 158.1L297.88 158.16L297.71 158.27L164.8 235C164.546 235.18 164.25 235.292 163.941 235.327C163.631 235.362 163.318 235.318 163.03 235.2C162.749 235.019 162.524 234.763 162.381 234.461C162.237 234.159 162.182 233.822 162.22 233.49V131.62C162.197 131.255 162.264 130.89 162.413 130.557C162.562 130.223 162.79 129.931 163.077 129.705C163.364 129.479 163.702 129.325 164.061 129.258C164.421 129.191 164.791 129.213 165.14 129.32L221 142.61L228.32 144.35C229.185 144.514 230.079 144.437 230.904 144.129C231.73 143.82 232.454 143.292 233 142.6L241.48 130.79L298.56 51.32C299.52 50 300.31 50.23 300.31 51.89Z" fill="white"/>
    <path d="M297.71 158.27L297.88 158.16L297.98 158.1C298.598 157.644 299.116 157.065 299.5 156.4C299.986 155.62 300.261 154.728 300.3 153.81L241.48 130.81L280.87 168L297.71 158.27Z" fill="#00BBC9"/>
    <path d="M162.2 233.5C162.162 233.832 162.217 234.168 162.361 234.471C162.504 234.773 162.729 235.029 163.01 235.21C163.298 235.328 163.611 235.372 163.921 235.337C164.23 235.302 164.526 235.19 164.78 235.01L210.54 208.59L220.99 142.59L162.18 231.79L162.2 233.5Z" fill="#00BBC9"/>
    <path d="M299.5 156.4C299.116 157.065 298.599 157.644 297.98 158.1L297.88 158.16L164.8 235C164.546 235.18 164.25 235.292 163.941 235.327C163.631 235.362 163.318 235.318 163.03 235.2L226.67 133.6C227.946 131.564 229.912 130.055 232.21 129.35C234.507 128.644 236.981 128.79 239.18 129.76L299.5 156.4Z" fill="#00BBC9"/>
    <path opacity="0.3" d="M299.5 156.4C299.116 157.065 298.599 157.644 297.98 158.1L297.88 158.16L164.8 235C164.546 235.18 164.25 235.292 163.941 235.327C163.631 235.362 163.318 235.318 163.03 235.2L226.67 133.6C227.946 131.564 229.912 130.055 232.21 129.35C234.507 128.644 236.981 128.79 239.18 129.76L299.5 156.4Z" fill="white"/>
    <path d="M221.2 107.63C220.033 107.811 218.84 107.705 217.723 107.321C216.607 106.938 215.6 106.289 214.79 105.43C213.27 103.74 212.51 101.13 212.51 97.6199C212.513 93.6596 213.361 89.7455 215 86.14C216.682 82.4298 219.004 79.0448 221.86 76.14C224.931 72.9557 228.431 70.2159 232.26 68C236.013 65.84 239.217 64.6433 241.87 64.41C244.54 64.17 246.55 64.86 247.93 66.46C249.31 68.06 249.99 70.5099 249.99 73.7899C250.048 77.0429 249.277 80.2572 247.75 83.13C246.404 85.7316 244.353 87.9013 241.83 89.39C240.959 90.0087 239.892 90.2862 238.83 90.17C238.452 90.0952 238.104 89.9129 237.827 89.6451C237.551 89.3772 237.357 89.0351 237.27 88.66C236.437 90.235 235.38 91.6801 234.13 92.95C232.866 94.2543 231.425 95.3752 229.85 96.28C227.13 97.82 224.96 98.28 223.36 97.75C221.76 97.22 221 95.6 221 92.9C221.023 89.5069 222.068 86.1996 224 83.41C226.103 80.3173 228.896 77.7564 232.16 75.9299C233.523 75.1183 235.004 74.5244 236.55 74.17C237.699 73.8585 238.911 73.8585 240.06 74.17V84.7C240.06 85.55 240.21 86.07 240.5 86.27C240.79 86.47 241.27 86.37 241.95 85.98C243.217 85.1559 244.154 83.9139 244.6 82.47C245.276 80.5195 245.598 78.4637 245.55 76.3999C245.55 73.7733 244.977 71.8633 243.83 70.67C243.217 70.0709 242.47 69.6275 241.65 69.3769C240.831 69.1264 239.963 69.076 239.12 69.23C236.679 69.6029 234.34 70.4743 232.25 71.7899C227.829 74.2425 224.017 77.6606 221.1 81.7899C218.404 85.6651 216.972 90.2792 217 95C217 97.8733 217.59 99.9699 218.77 101.29C219.382 101.951 220.148 102.45 220.999 102.743C221.85 103.036 222.761 103.114 223.65 102.97C226.139 102.617 228.524 101.742 230.65 100.4C232.117 99.5514 233.506 98.5742 234.8 97.4799C236.005 96.4852 237.101 95.3656 238.07 94.14C238.17 94.0109 238.288 93.8965 238.42 93.8C238.51 93.75 238.6 93.8 238.68 93.92L239.78 95.92C239.82 95.9993 239.85 96.0832 239.87 96.17C239.835 96.3927 239.726 96.5971 239.56 96.75C238.352 98.2027 237.013 99.5416 235.56 100.75C234.03 102.033 232.395 103.184 230.67 104.19C227.797 106.004 224.567 107.177 221.2 107.63ZM234.2 88.83C235.152 87.7065 235.707 86.3007 235.78 84.83V78.73C234.353 78.8505 232.978 79.3248 231.78 80.11C229.872 81.183 228.248 82.6946 227.04 84.52C225.907 86.1945 225.298 88.1682 225.29 90.19C225.29 91.88 225.71 92.89 226.56 93.19C227.41 93.49 228.72 93.19 230.51 92.12C231.959 91.2816 233.227 90.1632 234.24 88.83H234.2Z" fill="#E0E0E0"/>
    <path d="M93.84 117.65L84.09 112H84.02C80.69 110.12 76.1 110.4 71.02 113.33C60.81 119.22 52.54 133.55 52.54 145.33C52.54 151.22 54.6 155.33 57.93 157.33L67 162.52L68.64 159.79C70.5 159.373 72.2866 158.679 73.94 157.73C84.14 151.83 92.42 137.5 92.42 125.73C92.4145 124.139 92.2198 122.555 91.84 121.01L93.84 117.65Z" fill="#F28F8F"/>
    <path d="M93.84 117.65L84.09 112H84.02C80.69 110.12 76.1 110.4 71.02 113.33C60.81 119.22 52.54 133.55 52.54 145.33C52.54 151.22 54.6 155.33 57.93 157.33L67 162.52L68.64 159.79C70.5 159.373 72.2866 158.679 73.94 157.73C84.14 151.83 92.42 137.5 92.42 125.73C92.4145 124.139 92.2198 122.555 91.84 121.01L93.84 117.65Z" fill="#00BBC9"/>
    <path opacity="0.4" d="M93.84 117.65L84.09 112H84.02C80.69 110.12 76.1 110.4 71.02 113.33C60.81 119.22 52.54 133.55 52.54 145.33C52.54 151.22 54.6 155.33 57.93 157.33L67 162.52L68.64 159.79C70.5 159.373 72.2866 158.679 73.94 157.73C84.14 151.83 92.42 137.5 92.42 125.73C92.4145 124.139 92.2198 122.555 91.84 121.01L93.84 117.65Z" fill="black"/>
    <path d="M80.39 118.7C70.18 124.6 61.91 138.93 61.91 150.7C61.91 162.47 70.18 167.26 80.39 161.37C90.6 155.48 98.87 141.15 98.87 129.37C98.87 117.59 90.6 112.81 80.39 118.7Z" fill="#00BBC9"/>
    <path d="M73.17 153.52C72.98 153.52 72.88 153.41 72.88 153.24C72.8997 153.052 72.9539 152.869 73.04 152.7L73.97 150.61C74.0316 150.405 74.1536 150.224 74.32 150.09C74.4585 150.027 74.6081 149.993 74.76 149.99C75.5921 149.94 76.4133 149.776 77.2 149.5C78.2461 149.148 79.2517 148.685 80.2 148.12C81.6754 147.321 82.9693 146.224 84 144.9C84.773 143.898 85.2042 142.675 85.23 141.41C85.23 139.2 83.88 138.88 81.18 140.41L78.55 142C78.12 142.24 77.82 142.33 77.64 142.25C77.46 142.17 77.37 141.93 77.37 141.53V140.7C77.3558 140.347 77.45 139.998 77.64 139.7C77.8808 139.375 78.1919 139.108 78.55 138.92L81.16 137.41C82.2058 136.841 83.0927 136.019 83.74 135.02C84.2824 134.182 84.5802 133.208 84.6 132.21C84.6 130.07 83.0933 129.87 80.08 131.61C78.2269 132.666 76.5583 134.017 75.14 135.61C75.0068 135.76 74.8594 135.898 74.7 136.02C74.6412 136.048 74.5746 136.055 74.5111 136.041C74.4476 136.026 74.3909 135.991 74.35 135.94L73.46 134.94C73.4103 134.894 73.3706 134.838 73.3431 134.776C73.3156 134.715 73.3009 134.648 73.3 134.58C73.3203 134.35 73.4192 134.135 73.58 133.97C74.4659 132.862 75.472 131.856 76.58 130.97C77.8702 129.919 79.2448 128.975 80.69 128.15C81.9947 127.338 83.434 126.766 84.94 126.46C85.4139 126.344 85.9073 126.334 86.3858 126.429C86.8642 126.524 87.3162 126.722 87.71 127.01C88.0651 127.352 88.3392 127.77 88.5122 128.232C88.6852 128.694 88.7528 129.189 88.71 129.68C88.6875 130.781 88.4425 131.866 87.99 132.87C87.5067 134.029 86.8304 135.097 85.99 136.03C86.4216 135.885 86.8829 135.853 87.3306 135.935C87.7784 136.017 88.1979 136.211 88.55 136.5C88.8581 136.859 89.0919 137.275 89.2379 137.725C89.3838 138.174 89.4389 138.649 89.4 139.12C89.3236 141.337 88.5463 143.473 87.18 145.22C85.5028 147.47 83.3609 149.332 80.9 150.68C77.38 152.74 74.8033 153.687 73.17 153.52Z" fill="white"/>
    </svg>
    